<?xml version="1.0" encoding="utf-8" standalone="no"?>
<!DOCTYPE svg PUBLIC "-//W3C//DTD SVG 1.1//EN"
  "http://www.w3.org/Graphics/SVG/1.1/DTD/svg11.dtd">
<svg xmlns:xlink="http://www.w3.org/1999/xlink" width="460.8pt" height="345.6pt" viewBox="0 0 460.8 345.6" xmlns="http://www.w3.org/2000/svg" version="1.1">
 <metadata>
  <rdf:RDF xmlns:dc="http://purl.org/dc/elements/1.1/" xmlns:cc="http://creativecommons.org/ns#" xmlns:rdf="http://www.w3.org/1999/02/22-rdf-syntax-ns#">
   <cc:Work>
    <dc:type rdf:resource="http://purl.org/dc/dcmitype/StillImage"/>
    <dc:date>2022-11-15T16:35:40.731516</dc:date>
    <dc:format>image/svg+xml</dc:format>
    <dc:creator>
     <cc:Agent>
      <dc:title>Matplotlib v3.6.0, https://matplotlib.org/</dc:title>
     </cc:Agent>
    </dc:creator>
   </cc:Work>
  </rdf:RDF>
 </metadata>
 <defs>
  <style type="text/css">*{stroke-linejoin: round; stroke-linecap: butt}</style>
 </defs>
 <g id="figure_1">
  <g id="patch_1">
   <path d="M 0 345.6 
L 460.8 345.6 
L 460.8 0 
L 0 0 
z
" style="fill: #ffffff"/>
  </g>
  <g id="axes_1">
   <g id="patch_2">
    <path d="M 57.6 307.584 
L 414.72 307.584 
L 414.72 41.472 
L 57.6 41.472 
z
" style="fill: #ffffff"/>
   </g>
   <g id="matplotlib.axis_1">
    <g id="xtick_1">
     <g id="line2d_1">
      <defs>
       <path id="m894b0f5db0" d="M 0 0 
L 0 3.5 
" style="stroke: #000000; stroke-width: 0.8"/>
      </defs>
      <g>
       <use xlink:href="#m894b0f5db0" x="73.832727" y="307.584" style="stroke: #000000; stroke-width: 0.8"/>
      </g>
     </g>
     <g id="text_1">
      <!-- 0 -->
      <g transform="translate(70.651477 322.182437) scale(0.1 -0.1)">
       <defs>
        <path id="DejaVuSans-30" d="M 2034 4250 
Q 1547 4250 1301 3770 
Q 1056 3291 1056 2328 
Q 1056 1369 1301 889 
Q 1547 409 2034 409 
Q 2525 409 2770 889 
Q 3016 1369 3016 2328 
Q 3016 3291 2770 3770 
Q 2525 4250 2034 4250 
z
M 2034 4750 
Q 2819 4750 3233 4129 
Q 3647 3509 3647 2328 
Q 3647 1150 3233 529 
Q 2819 -91 2034 -91 
Q 1250 -91 836 529 
Q 422 1150 422 2328 
Q 422 3509 836 4129 
Q 1250 4750 2034 4750 
z
" transform="scale(0.015625)"/>
       </defs>
       <use xlink:href="#DejaVuSans-30"/>
      </g>
     </g>
    </g>
    <g id="xtick_2">
     <g id="line2d_2">
      <g>
       <use xlink:href="#m894b0f5db0" x="139.419504" y="307.584" style="stroke: #000000; stroke-width: 0.8"/>
      </g>
     </g>
     <g id="text_2">
      <!-- 20 -->
      <g transform="translate(133.057004 322.182437) scale(0.1 -0.1)">
       <defs>
        <path id="DejaVuSans-32" d="M 1228 531 
L 3431 531 
L 3431 0 
L 469 0 
L 469 531 
Q 828 903 1448 1529 
Q 2069 2156 2228 2338 
Q 2531 2678 2651 2914 
Q 2772 3150 2772 3378 
Q 2772 3750 2511 3984 
Q 2250 4219 1831 4219 
Q 1534 4219 1204 4116 
Q 875 4013 500 3803 
L 500 4441 
Q 881 4594 1212 4672 
Q 1544 4750 1819 4750 
Q 2544 4750 2975 4387 
Q 3406 4025 3406 3419 
Q 3406 3131 3298 2873 
Q 3191 2616 2906 2266 
Q 2828 2175 2409 1742 
Q 1991 1309 1228 531 
z
" transform="scale(0.015625)"/>
       </defs>
       <use xlink:href="#DejaVuSans-32"/>
       <use xlink:href="#DejaVuSans-30" x="63.623047"/>
      </g>
     </g>
    </g>
    <g id="xtick_3">
     <g id="line2d_3">
      <g>
       <use xlink:href="#m894b0f5db0" x="205.006281" y="307.584" style="stroke: #000000; stroke-width: 0.8"/>
      </g>
     </g>
     <g id="text_3">
      <!-- 40 -->
      <g transform="translate(198.643781 322.182437) scale(0.1 -0.1)">
       <defs>
        <path id="DejaVuSans-34" d="M 2419 4116 
L 825 1625 
L 2419 1625 
L 2419 4116 
z
M 2253 4666 
L 3047 4666 
L 3047 1625 
L 3713 1625 
L 3713 1100 
L 3047 1100 
L 3047 0 
L 2419 0 
L 2419 1100 
L 313 1100 
L 313 1709 
L 2253 4666 
z
" transform="scale(0.015625)"/>
       </defs>
       <use xlink:href="#DejaVuSans-34"/>
       <use xlink:href="#DejaVuSans-30" x="63.623047"/>
      </g>
     </g>
    </g>
    <g id="xtick_4">
     <g id="line2d_4">
      <g>
       <use xlink:href="#m894b0f5db0" x="270.593058" y="307.584" style="stroke: #000000; stroke-width: 0.8"/>
      </g>
     </g>
     <g id="text_4">
      <!-- 60 -->
      <g transform="translate(264.230558 322.182437) scale(0.1 -0.1)">
       <defs>
        <path id="DejaVuSans-36" d="M 2113 2584 
Q 1688 2584 1439 2293 
Q 1191 2003 1191 1497 
Q 1191 994 1439 701 
Q 1688 409 2113 409 
Q 2538 409 2786 701 
Q 3034 994 3034 1497 
Q 3034 2003 2786 2293 
Q 2538 2584 2113 2584 
z
M 3366 4563 
L 3366 3988 
Q 3128 4100 2886 4159 
Q 2644 4219 2406 4219 
Q 1781 4219 1451 3797 
Q 1122 3375 1075 2522 
Q 1259 2794 1537 2939 
Q 1816 3084 2150 3084 
Q 2853 3084 3261 2657 
Q 3669 2231 3669 1497 
Q 3669 778 3244 343 
Q 2819 -91 2113 -91 
Q 1303 -91 875 529 
Q 447 1150 447 2328 
Q 447 3434 972 4092 
Q 1497 4750 2381 4750 
Q 2619 4750 2861 4703 
Q 3103 4656 3366 4563 
z
" transform="scale(0.015625)"/>
       </defs>
       <use xlink:href="#DejaVuSans-36"/>
       <use xlink:href="#DejaVuSans-30" x="63.623047"/>
      </g>
     </g>
    </g>
    <g id="xtick_5">
     <g id="line2d_5">
      <g>
       <use xlink:href="#m894b0f5db0" x="336.179835" y="307.584" style="stroke: #000000; stroke-width: 0.8"/>
      </g>
     </g>
     <g id="text_5">
      <!-- 80 -->
      <g transform="translate(329.817335 322.182437) scale(0.1 -0.1)">
       <defs>
        <path id="DejaVuSans-38" d="M 2034 2216 
Q 1584 2216 1326 1975 
Q 1069 1734 1069 1313 
Q 1069 891 1326 650 
Q 1584 409 2034 409 
Q 2484 409 2743 651 
Q 3003 894 3003 1313 
Q 3003 1734 2745 1975 
Q 2488 2216 2034 2216 
z
M 1403 2484 
Q 997 2584 770 2862 
Q 544 3141 544 3541 
Q 544 4100 942 4425 
Q 1341 4750 2034 4750 
Q 2731 4750 3128 4425 
Q 3525 4100 3525 3541 
Q 3525 3141 3298 2862 
Q 3072 2584 2669 2484 
Q 3125 2378 3379 2068 
Q 3634 1759 3634 1313 
Q 3634 634 3220 271 
Q 2806 -91 2034 -91 
Q 1263 -91 848 271 
Q 434 634 434 1313 
Q 434 1759 690 2068 
Q 947 2378 1403 2484 
z
M 1172 3481 
Q 1172 3119 1398 2916 
Q 1625 2713 2034 2713 
Q 2441 2713 2670 2916 
Q 2900 3119 2900 3481 
Q 2900 3844 2670 4047 
Q 2441 4250 2034 4250 
Q 1625 4250 1398 4047 
Q 1172 3844 1172 3481 
z
" transform="scale(0.015625)"/>
       </defs>
       <use xlink:href="#DejaVuSans-38"/>
       <use xlink:href="#DejaVuSans-30" x="63.623047"/>
      </g>
     </g>
    </g>
    <g id="xtick_6">
     <g id="line2d_6">
      <g>
       <use xlink:href="#m894b0f5db0" x="401.766612" y="307.584" style="stroke: #000000; stroke-width: 0.8"/>
      </g>
     </g>
     <g id="text_6">
      <!-- 100 -->
      <g transform="translate(392.222862 322.182437) scale(0.1 -0.1)">
       <defs>
        <path id="DejaVuSans-31" d="M 794 531 
L 1825 531 
L 1825 4091 
L 703 3866 
L 703 4441 
L 1819 4666 
L 2450 4666 
L 2450 531 
L 3481 531 
L 3481 0 
L 794 0 
L 794 531 
z
" transform="scale(0.015625)"/>
       </defs>
       <use xlink:href="#DejaVuSans-31"/>
       <use xlink:href="#DejaVuSans-30" x="63.623047"/>
       <use xlink:href="#DejaVuSans-30" x="127.246094"/>
      </g>
     </g>
    </g>
   </g>
   <g id="matplotlib.axis_2">
    <g id="ytick_1">
     <g id="line2d_7">
      <defs>
       <path id="m84a4d45840" d="M 0 0 
L -3.5 0 
" style="stroke: #000000; stroke-width: 0.8"/>
      </defs>
      <g>
       <use xlink:href="#m84a4d45840" x="57.6" y="291.946625" style="stroke: #000000; stroke-width: 0.8"/>
      </g>
     </g>
     <g id="text_7">
      <!-- −140 -->
      <g transform="translate(23.132812 295.745843) scale(0.1 -0.1)">
       <defs>
        <path id="DejaVuSans-2212" d="M 678 2272 
L 4684 2272 
L 4684 1741 
L 678 1741 
L 678 2272 
z
" transform="scale(0.015625)"/>
       </defs>
       <use xlink:href="#DejaVuSans-2212"/>
       <use xlink:href="#DejaVuSans-31" x="83.789062"/>
       <use xlink:href="#DejaVuSans-34" x="147.412109"/>
       <use xlink:href="#DejaVuSans-30" x="211.035156"/>
      </g>
     </g>
    </g>
    <g id="ytick_2">
     <g id="line2d_8">
      <g>
       <use xlink:href="#m84a4d45840" x="57.6" y="257.921927" style="stroke: #000000; stroke-width: 0.8"/>
      </g>
     </g>
     <g id="text_8">
      <!-- −120 -->
      <g transform="translate(23.132812 261.721145) scale(0.1 -0.1)">
       <use xlink:href="#DejaVuSans-2212"/>
       <use xlink:href="#DejaVuSans-31" x="83.789062"/>
       <use xlink:href="#DejaVuSans-32" x="147.412109"/>
       <use xlink:href="#DejaVuSans-30" x="211.035156"/>
      </g>
     </g>
    </g>
    <g id="ytick_3">
     <g id="line2d_9">
      <g>
       <use xlink:href="#m84a4d45840" x="57.6" y="223.897229" style="stroke: #000000; stroke-width: 0.8"/>
      </g>
     </g>
     <g id="text_9">
      <!-- −100 -->
      <g transform="translate(23.132812 227.696447) scale(0.1 -0.1)">
       <use xlink:href="#DejaVuSans-2212"/>
       <use xlink:href="#DejaVuSans-31" x="83.789062"/>
       <use xlink:href="#DejaVuSans-30" x="147.412109"/>
       <use xlink:href="#DejaVuSans-30" x="211.035156"/>
      </g>
     </g>
    </g>
    <g id="ytick_4">
     <g id="line2d_10">
      <g>
       <use xlink:href="#m84a4d45840" x="57.6" y="189.872531" style="stroke: #000000; stroke-width: 0.8"/>
      </g>
     </g>
     <g id="text_10">
      <!-- −80 -->
      <g transform="translate(29.495313 193.671749) scale(0.1 -0.1)">
       <use xlink:href="#DejaVuSans-2212"/>
       <use xlink:href="#DejaVuSans-38" x="83.789062"/>
       <use xlink:href="#DejaVuSans-30" x="147.412109"/>
      </g>
     </g>
    </g>
    <g id="ytick_5">
     <g id="line2d_11">
      <g>
       <use xlink:href="#m84a4d45840" x="57.6" y="155.847833" style="stroke: #000000; stroke-width: 0.8"/>
      </g>
     </g>
     <g id="text_11">
      <!-- −60 -->
      <g transform="translate(29.495313 159.647051) scale(0.1 -0.1)">
       <use xlink:href="#DejaVuSans-2212"/>
       <use xlink:href="#DejaVuSans-36" x="83.789062"/>
       <use xlink:href="#DejaVuSans-30" x="147.412109"/>
      </g>
     </g>
    </g>
    <g id="ytick_6">
     <g id="line2d_12">
      <g>
       <use xlink:href="#m84a4d45840" x="57.6" y="121.823135" style="stroke: #000000; stroke-width: 0.8"/>
      </g>
     </g>
     <g id="text_12">
      <!-- −40 -->
      <g transform="translate(29.495313 125.622353) scale(0.1 -0.1)">
       <use xlink:href="#DejaVuSans-2212"/>
       <use xlink:href="#DejaVuSans-34" x="83.789062"/>
       <use xlink:href="#DejaVuSans-30" x="147.412109"/>
      </g>
     </g>
    </g>
    <g id="ytick_7">
     <g id="line2d_13">
      <g>
       <use xlink:href="#m84a4d45840" x="57.6" y="87.798436" style="stroke: #000000; stroke-width: 0.8"/>
      </g>
     </g>
     <g id="text_13">
      <!-- −20 -->
      <g transform="translate(29.495313 91.597655) scale(0.1 -0.1)">
       <use xlink:href="#DejaVuSans-2212"/>
       <use xlink:href="#DejaVuSans-32" x="83.789062"/>
       <use xlink:href="#DejaVuSans-30" x="147.412109"/>
      </g>
     </g>
    </g>
    <g id="ytick_8">
     <g id="line2d_14">
      <g>
       <use xlink:href="#m84a4d45840" x="57.6" y="53.773738" style="stroke: #000000; stroke-width: 0.8"/>
      </g>
     </g>
     <g id="text_14">
      <!-- 0 -->
      <g transform="translate(44.2375 57.572957) scale(0.1 -0.1)">
       <use xlink:href="#DejaVuSans-30"/>
      </g>
     </g>
    </g>
   </g>
   <g id="line2d_15">
    <path d="M 73.832727 53.773738 
L 398.487273 53.773738 
L 398.487273 53.773738 
" clip-path="url(#p119bb00b65)" style="fill: none; stroke: #1f77b4; stroke-width: 1.5; stroke-linecap: square"/>
   </g>
   <g id="line2d_16">
    <path d="M 73.832727 53.773738 
L 398.487273 53.773738 
L 398.487273 53.773738 
" clip-path="url(#p119bb00b65)" style="fill: none; stroke: #ff7f0e; stroke-width: 1.5; stroke-linecap: square"/>
   </g>
   <g id="line2d_17">
    <path d="M 73.832727 53.773738 
L 398.487273 53.773738 
L 398.487273 53.773738 
" clip-path="url(#p119bb00b65)" style="fill: none; stroke: #2ca02c; stroke-width: 1.5; stroke-linecap: square"/>
   </g>
   <g id="line2d_18">
    <path d="M 73.832727 53.773738 
L 398.487273 53.773738 
L 398.487273 53.773738 
" clip-path="url(#p119bb00b65)" style="fill: none; stroke: #d62728; stroke-width: 1.5; stroke-linecap: square"/>
   </g>
   <g id="line2d_19">
    <path d="M 73.832727 53.773738 
L 398.487273 53.773738 
L 398.487273 53.773738 
" clip-path="url(#p119bb00b65)" style="fill: none; stroke: #9467bd; stroke-width: 1.5; stroke-linecap: square"/>
   </g>
   <g id="line2d_20">
    <path d="M 73.832727 53.773738 
L 398.487273 53.773738 
L 398.487273 53.773738 
" clip-path="url(#p119bb00b65)" style="fill: none; stroke: #8c564b; stroke-width: 1.5; stroke-linecap: square"/>
   </g>
   <g id="line2d_21">
    <path d="M 73.832727 295.488 
L 74.488595 53.773738 
L 188.609587 53.773738 
L 188.937521 53.568 
L 189.265455 53.603268 
L 189.593388 53.841727 
L 201.726942 53.743037 
L 209.925289 53.845719 
L 221.075041 53.715662 
L 221.402975 54.509342 
L 221.730909 54.536831 
L 222.058843 53.773738 
L 398.487273 53.773738 
L 398.487273 53.773738 
" clip-path="url(#p119bb00b65)" style="fill: none; stroke: #e377c2; stroke-width: 1.5; stroke-linecap: square"/>
   </g>
   <g id="line2d_22">
    <path d="M 73.832727 53.63055 
L 398.487273 53.63055 
L 398.487273 53.63055 
" clip-path="url(#p119bb00b65)" style="fill: none; stroke: #7f7f7f; stroke-width: 1.5; stroke-linecap: square"/>
   </g>
   <g id="line2d_23">
    <path d="M 73.832727 53.63055 
L 398.487273 53.63055 
L 398.487273 53.63055 
" clip-path="url(#p119bb00b65)" style="fill: none; stroke: #bcbd22; stroke-width: 1.5; stroke-linecap: square"/>
   </g>
   <g id="patch_3">
    <path d="M 57.6 307.584 
L 57.6 41.472 
" style="fill: none; stroke: #000000; stroke-width: 0.8; stroke-linejoin: miter; stroke-linecap: square"/>
   </g>
   <g id="patch_4">
    <path d="M 414.72 307.584 
L 414.72 41.472 
" style="fill: none; stroke: #000000; stroke-width: 0.8; stroke-linejoin: miter; stroke-linecap: square"/>
   </g>
   <g id="patch_5">
    <path d="M 57.6 307.584 
L 414.72 307.584 
" style="fill: none; stroke: #000000; stroke-width: 0.8; stroke-linejoin: miter; stroke-linecap: square"/>
   </g>
   <g id="patch_6">
    <path d="M 57.6 41.472 
L 414.72 41.472 
" style="fill: none; stroke: #000000; stroke-width: 0.8; stroke-linejoin: miter; stroke-linecap: square"/>
   </g>
   <g id="legend_1">
    <g id="patch_7">
     <path d="M 285.30125 302.584 
L 407.72 302.584 
Q 409.72 302.584 409.72 300.584 
L 409.72 166.97775 
Q 409.72 164.97775 407.72 164.97775 
L 285.30125 164.97775 
Q 283.30125 164.97775 283.30125 166.97775 
L 283.30125 300.584 
Q 283.30125 302.584 285.30125 302.584 
z
" style="fill: #ffffff; opacity: 0.8; stroke: #cccccc; stroke-linejoin: miter"/>
    </g>
    <g id="line2d_24">
     <path d="M 287.30125 173.076188 
L 297.30125 173.076188 
L 307.30125 173.076188 
" style="fill: none; stroke: #1f77b4; stroke-width: 1.5; stroke-linecap: square"/>
    </g>
    <g id="text_15">
     <!-- ('RNA_0', 'RNA_0') -->
     <g transform="translate(315.30125 176.576188) scale(0.1 -0.1)">
      <defs>
       <path id="DejaVuSans-28" d="M 1984 4856 
Q 1566 4138 1362 3434 
Q 1159 2731 1159 2009 
Q 1159 1288 1364 580 
Q 1569 -128 1984 -844 
L 1484 -844 
Q 1016 -109 783 600 
Q 550 1309 550 2009 
Q 550 2706 781 3412 
Q 1013 4119 1484 4856 
L 1984 4856 
z
" transform="scale(0.015625)"/>
       <path id="DejaVuSans-27" d="M 1147 4666 
L 1147 2931 
L 616 2931 
L 616 4666 
L 1147 4666 
z
" transform="scale(0.015625)"/>
       <path id="DejaVuSans-52" d="M 2841 2188 
Q 3044 2119 3236 1894 
Q 3428 1669 3622 1275 
L 4263 0 
L 3584 0 
L 2988 1197 
Q 2756 1666 2539 1819 
Q 2322 1972 1947 1972 
L 1259 1972 
L 1259 0 
L 628 0 
L 628 4666 
L 2053 4666 
Q 2853 4666 3247 4331 
Q 3641 3997 3641 3322 
Q 3641 2881 3436 2590 
Q 3231 2300 2841 2188 
z
M 1259 4147 
L 1259 2491 
L 2053 2491 
Q 2509 2491 2742 2702 
Q 2975 2913 2975 3322 
Q 2975 3731 2742 3939 
Q 2509 4147 2053 4147 
L 1259 4147 
z
" transform="scale(0.015625)"/>
       <path id="DejaVuSans-4e" d="M 628 4666 
L 1478 4666 
L 3547 763 
L 3547 4666 
L 4159 4666 
L 4159 0 
L 3309 0 
L 1241 3903 
L 1241 0 
L 628 0 
L 628 4666 
z
" transform="scale(0.015625)"/>
       <path id="DejaVuSans-41" d="M 2188 4044 
L 1331 1722 
L 3047 1722 
L 2188 4044 
z
M 1831 4666 
L 2547 4666 
L 4325 0 
L 3669 0 
L 3244 1197 
L 1141 1197 
L 716 0 
L 50 0 
L 1831 4666 
z
" transform="scale(0.015625)"/>
       <path id="DejaVuSans-5f" d="M 3263 -1063 
L 3263 -1509 
L -63 -1509 
L -63 -1063 
L 3263 -1063 
z
" transform="scale(0.015625)"/>
       <path id="DejaVuSans-2c" d="M 750 794 
L 1409 794 
L 1409 256 
L 897 -744 
L 494 -744 
L 750 256 
L 750 794 
z
" transform="scale(0.015625)"/>
       <path id="DejaVuSans-20" transform="scale(0.015625)"/>
       <path id="DejaVuSans-29" d="M 513 4856 
L 1013 4856 
Q 1481 4119 1714 3412 
Q 1947 2706 1947 2009 
Q 1947 1309 1714 600 
Q 1481 -109 1013 -844 
L 513 -844 
Q 928 -128 1133 580 
Q 1338 1288 1338 2009 
Q 1338 2731 1133 3434 
Q 928 4138 513 4856 
z
" transform="scale(0.015625)"/>
      </defs>
      <use xlink:href="#DejaVuSans-28"/>
      <use xlink:href="#DejaVuSans-27" x="39.013672"/>
      <use xlink:href="#DejaVuSans-52" x="66.503906"/>
      <use xlink:href="#DejaVuSans-4e" x="135.986328"/>
      <use xlink:href="#DejaVuSans-41" x="210.791016"/>
      <use xlink:href="#DejaVuSans-5f" x="279.199219"/>
      <use xlink:href="#DejaVuSans-30" x="329.199219"/>
      <use xlink:href="#DejaVuSans-27" x="392.822266"/>
      <use xlink:href="#DejaVuSans-2c" x="420.3125"/>
      <use xlink:href="#DejaVuSans-20" x="452.099609"/>
      <use xlink:href="#DejaVuSans-27" x="483.886719"/>
      <use xlink:href="#DejaVuSans-52" x="511.376953"/>
      <use xlink:href="#DejaVuSans-4e" x="580.859375"/>
      <use xlink:href="#DejaVuSans-41" x="655.664062"/>
      <use xlink:href="#DejaVuSans-5f" x="724.072266"/>
      <use xlink:href="#DejaVuSans-30" x="774.072266"/>
      <use xlink:href="#DejaVuSans-27" x="837.695312"/>
      <use xlink:href="#DejaVuSans-29" x="865.185547"/>
     </g>
    </g>
    <g id="line2d_25">
     <path d="M 287.30125 188.032438 
L 297.30125 188.032438 
L 307.30125 188.032438 
" style="fill: none; stroke: #ff7f0e; stroke-width: 1.5; stroke-linecap: square"/>
    </g>
    <g id="text_16">
     <!-- ('RNA_0', 'RNA_1') -->
     <g transform="translate(315.30125 191.532438) scale(0.1 -0.1)">
      <use xlink:href="#DejaVuSans-28"/>
      <use xlink:href="#DejaVuSans-27" x="39.013672"/>
      <use xlink:href="#DejaVuSans-52" x="66.503906"/>
      <use xlink:href="#DejaVuSans-4e" x="135.986328"/>
      <use xlink:href="#DejaVuSans-41" x="210.791016"/>
      <use xlink:href="#DejaVuSans-5f" x="279.199219"/>
      <use xlink:href="#DejaVuSans-30" x="329.199219"/>
      <use xlink:href="#DejaVuSans-27" x="392.822266"/>
      <use xlink:href="#DejaVuSans-2c" x="420.3125"/>
      <use xlink:href="#DejaVuSans-20" x="452.099609"/>
      <use xlink:href="#DejaVuSans-27" x="483.886719"/>
      <use xlink:href="#DejaVuSans-52" x="511.376953"/>
      <use xlink:href="#DejaVuSans-4e" x="580.859375"/>
      <use xlink:href="#DejaVuSans-41" x="655.664062"/>
      <use xlink:href="#DejaVuSans-5f" x="724.072266"/>
      <use xlink:href="#DejaVuSans-31" x="774.072266"/>
      <use xlink:href="#DejaVuSans-27" x="837.695312"/>
      <use xlink:href="#DejaVuSans-29" x="865.185547"/>
     </g>
    </g>
    <g id="line2d_26">
     <path d="M 287.30125 202.988688 
L 297.30125 202.988688 
L 307.30125 202.988688 
" style="fill: none; stroke: #2ca02c; stroke-width: 1.5; stroke-linecap: square"/>
    </g>
    <g id="text_17">
     <!-- ('RNA_0', 'RNA_2') -->
     <g transform="translate(315.30125 206.488688) scale(0.1 -0.1)">
      <use xlink:href="#DejaVuSans-28"/>
      <use xlink:href="#DejaVuSans-27" x="39.013672"/>
      <use xlink:href="#DejaVuSans-52" x="66.503906"/>
      <use xlink:href="#DejaVuSans-4e" x="135.986328"/>
      <use xlink:href="#DejaVuSans-41" x="210.791016"/>
      <use xlink:href="#DejaVuSans-5f" x="279.199219"/>
      <use xlink:href="#DejaVuSans-30" x="329.199219"/>
      <use xlink:href="#DejaVuSans-27" x="392.822266"/>
      <use xlink:href="#DejaVuSans-2c" x="420.3125"/>
      <use xlink:href="#DejaVuSans-20" x="452.099609"/>
      <use xlink:href="#DejaVuSans-27" x="483.886719"/>
      <use xlink:href="#DejaVuSans-52" x="511.376953"/>
      <use xlink:href="#DejaVuSans-4e" x="580.859375"/>
      <use xlink:href="#DejaVuSans-41" x="655.664062"/>
      <use xlink:href="#DejaVuSans-5f" x="724.072266"/>
      <use xlink:href="#DejaVuSans-32" x="774.072266"/>
      <use xlink:href="#DejaVuSans-27" x="837.695312"/>
      <use xlink:href="#DejaVuSans-29" x="865.185547"/>
     </g>
    </g>
    <g id="line2d_27">
     <path d="M 287.30125 217.944938 
L 297.30125 217.944938 
L 307.30125 217.944938 
" style="fill: none; stroke: #d62728; stroke-width: 1.5; stroke-linecap: square"/>
    </g>
    <g id="text_18">
     <!-- ('RNA_1', 'RNA_1') -->
     <g transform="translate(315.30125 221.444938) scale(0.1 -0.1)">
      <use xlink:href="#DejaVuSans-28"/>
      <use xlink:href="#DejaVuSans-27" x="39.013672"/>
      <use xlink:href="#DejaVuSans-52" x="66.503906"/>
      <use xlink:href="#DejaVuSans-4e" x="135.986328"/>
      <use xlink:href="#DejaVuSans-41" x="210.791016"/>
      <use xlink:href="#DejaVuSans-5f" x="279.199219"/>
      <use xlink:href="#DejaVuSans-31" x="329.199219"/>
      <use xlink:href="#DejaVuSans-27" x="392.822266"/>
      <use xlink:href="#DejaVuSans-2c" x="420.3125"/>
      <use xlink:href="#DejaVuSans-20" x="452.099609"/>
      <use xlink:href="#DejaVuSans-27" x="483.886719"/>
      <use xlink:href="#DejaVuSans-52" x="511.376953"/>
      <use xlink:href="#DejaVuSans-4e" x="580.859375"/>
      <use xlink:href="#DejaVuSans-41" x="655.664062"/>
      <use xlink:href="#DejaVuSans-5f" x="724.072266"/>
      <use xlink:href="#DejaVuSans-31" x="774.072266"/>
      <use xlink:href="#DejaVuSans-27" x="837.695312"/>
      <use xlink:href="#DejaVuSans-29" x="865.185547"/>
     </g>
    </g>
    <g id="line2d_28">
     <path d="M 287.30125 232.901187 
L 297.30125 232.901187 
L 307.30125 232.901187 
" style="fill: none; stroke: #9467bd; stroke-width: 1.5; stroke-linecap: square"/>
    </g>
    <g id="text_19">
     <!-- ('RNA_1', 'RNA_2') -->
     <g transform="translate(315.30125 236.401187) scale(0.1 -0.1)">
      <use xlink:href="#DejaVuSans-28"/>
      <use xlink:href="#DejaVuSans-27" x="39.013672"/>
      <use xlink:href="#DejaVuSans-52" x="66.503906"/>
      <use xlink:href="#DejaVuSans-4e" x="135.986328"/>
      <use xlink:href="#DejaVuSans-41" x="210.791016"/>
      <use xlink:href="#DejaVuSans-5f" x="279.199219"/>
      <use xlink:href="#DejaVuSans-31" x="329.199219"/>
      <use xlink:href="#DejaVuSans-27" x="392.822266"/>
      <use xlink:href="#DejaVuSans-2c" x="420.3125"/>
      <use xlink:href="#DejaVuSans-20" x="452.099609"/>
      <use xlink:href="#DejaVuSans-27" x="483.886719"/>
      <use xlink:href="#DejaVuSans-52" x="511.376953"/>
      <use xlink:href="#DejaVuSans-4e" x="580.859375"/>
      <use xlink:href="#DejaVuSans-41" x="655.664062"/>
      <use xlink:href="#DejaVuSans-5f" x="724.072266"/>
      <use xlink:href="#DejaVuSans-32" x="774.072266"/>
      <use xlink:href="#DejaVuSans-27" x="837.695312"/>
      <use xlink:href="#DejaVuSans-29" x="865.185547"/>
     </g>
    </g>
    <g id="line2d_29">
     <path d="M 287.30125 247.857438 
L 297.30125 247.857438 
L 307.30125 247.857438 
" style="fill: none; stroke: #8c564b; stroke-width: 1.5; stroke-linecap: square"/>
    </g>
    <g id="text_20">
     <!-- ('RNA_2', 'RNA_2') -->
     <g transform="translate(315.30125 251.357438) scale(0.1 -0.1)">
      <use xlink:href="#DejaVuSans-28"/>
      <use xlink:href="#DejaVuSans-27" x="39.013672"/>
      <use xlink:href="#DejaVuSans-52" x="66.503906"/>
      <use xlink:href="#DejaVuSans-4e" x="135.986328"/>
      <use xlink:href="#DejaVuSans-41" x="210.791016"/>
      <use xlink:href="#DejaVuSans-5f" x="279.199219"/>
      <use xlink:href="#DejaVuSans-32" x="329.199219"/>
      <use xlink:href="#DejaVuSans-27" x="392.822266"/>
      <use xlink:href="#DejaVuSans-2c" x="420.3125"/>
      <use xlink:href="#DejaVuSans-20" x="452.099609"/>
      <use xlink:href="#DejaVuSans-27" x="483.886719"/>
      <use xlink:href="#DejaVuSans-52" x="511.376953"/>
      <use xlink:href="#DejaVuSans-4e" x="580.859375"/>
      <use xlink:href="#DejaVuSans-41" x="655.664062"/>
      <use xlink:href="#DejaVuSans-5f" x="724.072266"/>
      <use xlink:href="#DejaVuSans-32" x="774.072266"/>
      <use xlink:href="#DejaVuSans-27" x="837.695312"/>
      <use xlink:href="#DejaVuSans-29" x="865.185547"/>
     </g>
    </g>
    <g id="line2d_30">
     <path d="M 287.30125 262.813688 
L 297.30125 262.813688 
L 307.30125 262.813688 
" style="fill: none; stroke: #e377c2; stroke-width: 1.5; stroke-linecap: square"/>
    </g>
    <g id="text_21">
     <!-- RNA_0 -->
     <g transform="translate(315.30125 266.313688) scale(0.1 -0.1)">
      <use xlink:href="#DejaVuSans-52"/>
      <use xlink:href="#DejaVuSans-4e" x="69.482422"/>
      <use xlink:href="#DejaVuSans-41" x="144.287109"/>
      <use xlink:href="#DejaVuSans-5f" x="212.695312"/>
      <use xlink:href="#DejaVuSans-30" x="262.695312"/>
     </g>
    </g>
    <g id="line2d_31">
     <path d="M 287.30125 277.769937 
L 297.30125 277.769937 
L 307.30125 277.769937 
" style="fill: none; stroke: #7f7f7f; stroke-width: 1.5; stroke-linecap: square"/>
    </g>
    <g id="text_22">
     <!-- RNA_1 -->
     <g transform="translate(315.30125 281.269937) scale(0.1 -0.1)">
      <use xlink:href="#DejaVuSans-52"/>
      <use xlink:href="#DejaVuSans-4e" x="69.482422"/>
      <use xlink:href="#DejaVuSans-41" x="144.287109"/>
      <use xlink:href="#DejaVuSans-5f" x="212.695312"/>
      <use xlink:href="#DejaVuSans-31" x="262.695312"/>
     </g>
    </g>
    <g id="line2d_32">
     <path d="M 287.30125 292.726187 
L 297.30125 292.726187 
L 307.30125 292.726187 
" style="fill: none; stroke: #bcbd22; stroke-width: 1.5; stroke-linecap: square"/>
    </g>
    <g id="text_23">
     <!-- RNA_2 -->
     <g transform="translate(315.30125 296.226187) scale(0.1 -0.1)">
      <use xlink:href="#DejaVuSans-52"/>
      <use xlink:href="#DejaVuSans-4e" x="69.482422"/>
      <use xlink:href="#DejaVuSans-41" x="144.287109"/>
      <use xlink:href="#DejaVuSans-5f" x="212.695312"/>
      <use xlink:href="#DejaVuSans-32" x="262.695312"/>
     </g>
    </g>
   </g>
  </g>
 </g>
 <defs>
  <clipPath id="p119bb00b65">
   <rect x="57.6" y="41.472" width="357.12" height="266.112"/>
  </clipPath>
 </defs>
</svg>
