<?xml version="1.0" encoding="utf-8" standalone="no"?>
<!DOCTYPE svg PUBLIC "-//W3C//DTD SVG 1.1//EN"
  "http://www.w3.org/Graphics/SVG/1.1/DTD/svg11.dtd">
<svg xmlns:xlink="http://www.w3.org/1999/xlink" width="460.8pt" height="345.6pt" viewBox="0 0 460.8 345.6" xmlns="http://www.w3.org/2000/svg" version="1.1">
 <metadata>
  <rdf:RDF xmlns:dc="http://purl.org/dc/elements/1.1/" xmlns:cc="http://creativecommons.org/ns#" xmlns:rdf="http://www.w3.org/1999/02/22-rdf-syntax-ns#">
   <cc:Work>
    <dc:type rdf:resource="http://purl.org/dc/dcmitype/StillImage"/>
    <dc:date>2023-06-14T17:05:35.861088</dc:date>
    <dc:format>image/svg+xml</dc:format>
    <dc:creator>
     <cc:Agent>
      <dc:title>Matplotlib v3.6.0, https://matplotlib.org/</dc:title>
     </cc:Agent>
    </dc:creator>
   </cc:Work>
  </rdf:RDF>
 </metadata>
 <defs>
  <style type="text/css">*{stroke-linejoin: round; stroke-linecap: butt}</style>
 </defs>
 <g id="figure_1">
  <g id="patch_1">
   <path d="M 0 345.6 
L 460.8 345.6 
L 460.8 0 
L 0 0 
z
" style="fill: #ffffff"/>
  </g>
  <g id="axes_1">
   <g id="patch_2">
    <path d="M 57.6 307.584 
L 414.72 307.584 
L 414.72 41.472 
L 57.6 41.472 
z
" style="fill: #ffffff"/>
   </g>
   <g id="matplotlib.axis_1">
    <g id="xtick_1">
     <g id="line2d_1">
      <defs>
       <path id="md43c84a0ce" d="M 0 0 
L 0 3.5 
" style="stroke: #000000; stroke-width: 0.8"/>
      </defs>
      <g>
       <use xlink:href="#md43c84a0ce" x="73.832727" y="307.584" style="stroke: #000000; stroke-width: 0.8"/>
      </g>
     </g>
     <g id="text_1">
      <!-- 0 -->
      <g transform="translate(70.651477 322.182437) scale(0.1 -0.1)">
       <defs>
        <path id="DejaVuSans-30" d="M 2034 4250 
Q 1547 4250 1301 3770 
Q 1056 3291 1056 2328 
Q 1056 1369 1301 889 
Q 1547 409 2034 409 
Q 2525 409 2770 889 
Q 3016 1369 3016 2328 
Q 3016 3291 2770 3770 
Q 2525 4250 2034 4250 
z
M 2034 4750 
Q 2819 4750 3233 4129 
Q 3647 3509 3647 2328 
Q 3647 1150 3233 529 
Q 2819 -91 2034 -91 
Q 1250 -91 836 529 
Q 422 1150 422 2328 
Q 422 3509 836 4129 
Q 1250 4750 2034 4750 
z
" transform="scale(0.015625)"/>
       </defs>
       <use xlink:href="#DejaVuSans-30"/>
      </g>
     </g>
    </g>
    <g id="xtick_2">
     <g id="line2d_2">
      <g>
       <use xlink:href="#md43c84a0ce" x="138.763636" y="307.584" style="stroke: #000000; stroke-width: 0.8"/>
      </g>
     </g>
     <g id="text_2">
      <!-- 100 -->
      <g transform="translate(129.219886 322.182437) scale(0.1 -0.1)">
       <defs>
        <path id="DejaVuSans-31" d="M 794 531 
L 1825 531 
L 1825 4091 
L 703 3866 
L 703 4441 
L 1819 4666 
L 2450 4666 
L 2450 531 
L 3481 531 
L 3481 0 
L 794 0 
L 794 531 
z
" transform="scale(0.015625)"/>
       </defs>
       <use xlink:href="#DejaVuSans-31"/>
       <use xlink:href="#DejaVuSans-30" x="63.623047"/>
       <use xlink:href="#DejaVuSans-30" x="127.246094"/>
      </g>
     </g>
    </g>
    <g id="xtick_3">
     <g id="line2d_3">
      <g>
       <use xlink:href="#md43c84a0ce" x="203.694545" y="307.584" style="stroke: #000000; stroke-width: 0.8"/>
      </g>
     </g>
     <g id="text_3">
      <!-- 200 -->
      <g transform="translate(194.150795 322.182437) scale(0.1 -0.1)">
       <defs>
        <path id="DejaVuSans-32" d="M 1228 531 
L 3431 531 
L 3431 0 
L 469 0 
L 469 531 
Q 828 903 1448 1529 
Q 2069 2156 2228 2338 
Q 2531 2678 2651 2914 
Q 2772 3150 2772 3378 
Q 2772 3750 2511 3984 
Q 2250 4219 1831 4219 
Q 1534 4219 1204 4116 
Q 875 4013 500 3803 
L 500 4441 
Q 881 4594 1212 4672 
Q 1544 4750 1819 4750 
Q 2544 4750 2975 4387 
Q 3406 4025 3406 3419 
Q 3406 3131 3298 2873 
Q 3191 2616 2906 2266 
Q 2828 2175 2409 1742 
Q 1991 1309 1228 531 
z
" transform="scale(0.015625)"/>
       </defs>
       <use xlink:href="#DejaVuSans-32"/>
       <use xlink:href="#DejaVuSans-30" x="63.623047"/>
       <use xlink:href="#DejaVuSans-30" x="127.246094"/>
      </g>
     </g>
    </g>
    <g id="xtick_4">
     <g id="line2d_4">
      <g>
       <use xlink:href="#md43c84a0ce" x="268.625455" y="307.584" style="stroke: #000000; stroke-width: 0.8"/>
      </g>
     </g>
     <g id="text_4">
      <!-- 300 -->
      <g transform="translate(259.081705 322.182437) scale(0.1 -0.1)">
       <defs>
        <path id="DejaVuSans-33" d="M 2597 2516 
Q 3050 2419 3304 2112 
Q 3559 1806 3559 1356 
Q 3559 666 3084 287 
Q 2609 -91 1734 -91 
Q 1441 -91 1130 -33 
Q 819 25 488 141 
L 488 750 
Q 750 597 1062 519 
Q 1375 441 1716 441 
Q 2309 441 2620 675 
Q 2931 909 2931 1356 
Q 2931 1769 2642 2001 
Q 2353 2234 1838 2234 
L 1294 2234 
L 1294 2753 
L 1863 2753 
Q 2328 2753 2575 2939 
Q 2822 3125 2822 3475 
Q 2822 3834 2567 4026 
Q 2313 4219 1838 4219 
Q 1578 4219 1281 4162 
Q 984 4106 628 3988 
L 628 4550 
Q 988 4650 1302 4700 
Q 1616 4750 1894 4750 
Q 2613 4750 3031 4423 
Q 3450 4097 3450 3541 
Q 3450 3153 3228 2886 
Q 3006 2619 2597 2516 
z
" transform="scale(0.015625)"/>
       </defs>
       <use xlink:href="#DejaVuSans-33"/>
       <use xlink:href="#DejaVuSans-30" x="63.623047"/>
       <use xlink:href="#DejaVuSans-30" x="127.246094"/>
      </g>
     </g>
    </g>
    <g id="xtick_5">
     <g id="line2d_5">
      <g>
       <use xlink:href="#md43c84a0ce" x="333.556364" y="307.584" style="stroke: #000000; stroke-width: 0.8"/>
      </g>
     </g>
     <g id="text_5">
      <!-- 400 -->
      <g transform="translate(324.012614 322.182437) scale(0.1 -0.1)">
       <defs>
        <path id="DejaVuSans-34" d="M 2419 4116 
L 825 1625 
L 2419 1625 
L 2419 4116 
z
M 2253 4666 
L 3047 4666 
L 3047 1625 
L 3713 1625 
L 3713 1100 
L 3047 1100 
L 3047 0 
L 2419 0 
L 2419 1100 
L 313 1100 
L 313 1709 
L 2253 4666 
z
" transform="scale(0.015625)"/>
       </defs>
       <use xlink:href="#DejaVuSans-34"/>
       <use xlink:href="#DejaVuSans-30" x="63.623047"/>
       <use xlink:href="#DejaVuSans-30" x="127.246094"/>
      </g>
     </g>
    </g>
    <g id="xtick_6">
     <g id="line2d_6">
      <g>
       <use xlink:href="#md43c84a0ce" x="398.487273" y="307.584" style="stroke: #000000; stroke-width: 0.8"/>
      </g>
     </g>
     <g id="text_6">
      <!-- 500 -->
      <g transform="translate(388.943523 322.182437) scale(0.1 -0.1)">
       <defs>
        <path id="DejaVuSans-35" d="M 691 4666 
L 3169 4666 
L 3169 4134 
L 1269 4134 
L 1269 2991 
Q 1406 3038 1543 3061 
Q 1681 3084 1819 3084 
Q 2600 3084 3056 2656 
Q 3513 2228 3513 1497 
Q 3513 744 3044 326 
Q 2575 -91 1722 -91 
Q 1428 -91 1123 -41 
Q 819 9 494 109 
L 494 744 
Q 775 591 1075 516 
Q 1375 441 1709 441 
Q 2250 441 2565 725 
Q 2881 1009 2881 1497 
Q 2881 1984 2565 2268 
Q 2250 2553 1709 2553 
Q 1456 2553 1204 2497 
Q 953 2441 691 2322 
L 691 4666 
z
" transform="scale(0.015625)"/>
       </defs>
       <use xlink:href="#DejaVuSans-35"/>
       <use xlink:href="#DejaVuSans-30" x="63.623047"/>
       <use xlink:href="#DejaVuSans-30" x="127.246094"/>
      </g>
     </g>
    </g>
   </g>
   <g id="matplotlib.axis_2">
    <g id="ytick_1">
     <g id="line2d_7">
      <defs>
       <path id="maee9f7ea06" d="M 0 0 
L -3.5 0 
" style="stroke: #000000; stroke-width: 0.8"/>
      </defs>
      <g>
       <use xlink:href="#maee9f7ea06" x="57.6" y="280.051803" style="stroke: #000000; stroke-width: 0.8"/>
      </g>
     </g>
     <g id="text_7">
      <!-- −1.0 -->
      <g transform="translate(26.317187 283.851022) scale(0.1 -0.1)">
       <defs>
        <path id="DejaVuSans-2212" d="M 678 2272 
L 4684 2272 
L 4684 1741 
L 678 1741 
L 678 2272 
z
" transform="scale(0.015625)"/>
        <path id="DejaVuSans-2e" d="M 684 794 
L 1344 794 
L 1344 0 
L 684 0 
L 684 794 
z
" transform="scale(0.015625)"/>
       </defs>
       <use xlink:href="#DejaVuSans-2212"/>
       <use xlink:href="#DejaVuSans-31" x="83.789062"/>
       <use xlink:href="#DejaVuSans-2e" x="147.412109"/>
       <use xlink:href="#DejaVuSans-30" x="179.199219"/>
      </g>
     </g>
    </g>
    <g id="ytick_2">
     <g id="line2d_8">
      <g>
       <use xlink:href="#maee9f7ea06" x="57.6" y="237.524149" style="stroke: #000000; stroke-width: 0.8"/>
      </g>
     </g>
     <g id="text_8">
      <!-- −0.8 -->
      <g transform="translate(26.317187 241.323367) scale(0.1 -0.1)">
       <defs>
        <path id="DejaVuSans-38" d="M 2034 2216 
Q 1584 2216 1326 1975 
Q 1069 1734 1069 1313 
Q 1069 891 1326 650 
Q 1584 409 2034 409 
Q 2484 409 2743 651 
Q 3003 894 3003 1313 
Q 3003 1734 2745 1975 
Q 2488 2216 2034 2216 
z
M 1403 2484 
Q 997 2584 770 2862 
Q 544 3141 544 3541 
Q 544 4100 942 4425 
Q 1341 4750 2034 4750 
Q 2731 4750 3128 4425 
Q 3525 4100 3525 3541 
Q 3525 3141 3298 2862 
Q 3072 2584 2669 2484 
Q 3125 2378 3379 2068 
Q 3634 1759 3634 1313 
Q 3634 634 3220 271 
Q 2806 -91 2034 -91 
Q 1263 -91 848 271 
Q 434 634 434 1313 
Q 434 1759 690 2068 
Q 947 2378 1403 2484 
z
M 1172 3481 
Q 1172 3119 1398 2916 
Q 1625 2713 2034 2713 
Q 2441 2713 2670 2916 
Q 2900 3119 2900 3481 
Q 2900 3844 2670 4047 
Q 2441 4250 2034 4250 
Q 1625 4250 1398 4047 
Q 1172 3844 1172 3481 
z
" transform="scale(0.015625)"/>
       </defs>
       <use xlink:href="#DejaVuSans-2212"/>
       <use xlink:href="#DejaVuSans-30" x="83.789062"/>
       <use xlink:href="#DejaVuSans-2e" x="147.412109"/>
       <use xlink:href="#DejaVuSans-38" x="179.199219"/>
      </g>
     </g>
    </g>
    <g id="ytick_3">
     <g id="line2d_9">
      <g>
       <use xlink:href="#maee9f7ea06" x="57.6" y="194.996494" style="stroke: #000000; stroke-width: 0.8"/>
      </g>
     </g>
     <g id="text_9">
      <!-- −0.6 -->
      <g transform="translate(26.317187 198.795713) scale(0.1 -0.1)">
       <defs>
        <path id="DejaVuSans-36" d="M 2113 2584 
Q 1688 2584 1439 2293 
Q 1191 2003 1191 1497 
Q 1191 994 1439 701 
Q 1688 409 2113 409 
Q 2538 409 2786 701 
Q 3034 994 3034 1497 
Q 3034 2003 2786 2293 
Q 2538 2584 2113 2584 
z
M 3366 4563 
L 3366 3988 
Q 3128 4100 2886 4159 
Q 2644 4219 2406 4219 
Q 1781 4219 1451 3797 
Q 1122 3375 1075 2522 
Q 1259 2794 1537 2939 
Q 1816 3084 2150 3084 
Q 2853 3084 3261 2657 
Q 3669 2231 3669 1497 
Q 3669 778 3244 343 
Q 2819 -91 2113 -91 
Q 1303 -91 875 529 
Q 447 1150 447 2328 
Q 447 3434 972 4092 
Q 1497 4750 2381 4750 
Q 2619 4750 2861 4703 
Q 3103 4656 3366 4563 
z
" transform="scale(0.015625)"/>
       </defs>
       <use xlink:href="#DejaVuSans-2212"/>
       <use xlink:href="#DejaVuSans-30" x="83.789062"/>
       <use xlink:href="#DejaVuSans-2e" x="147.412109"/>
       <use xlink:href="#DejaVuSans-36" x="179.199219"/>
      </g>
     </g>
    </g>
    <g id="ytick_4">
     <g id="line2d_10">
      <g>
       <use xlink:href="#maee9f7ea06" x="57.6" y="152.468839" style="stroke: #000000; stroke-width: 0.8"/>
      </g>
     </g>
     <g id="text_10">
      <!-- −0.4 -->
      <g transform="translate(26.317187 156.268058) scale(0.1 -0.1)">
       <use xlink:href="#DejaVuSans-2212"/>
       <use xlink:href="#DejaVuSans-30" x="83.789062"/>
       <use xlink:href="#DejaVuSans-2e" x="147.412109"/>
       <use xlink:href="#DejaVuSans-34" x="179.199219"/>
      </g>
     </g>
    </g>
    <g id="ytick_5">
     <g id="line2d_11">
      <g>
       <use xlink:href="#maee9f7ea06" x="57.6" y="109.941185" style="stroke: #000000; stroke-width: 0.8"/>
      </g>
     </g>
     <g id="text_11">
      <!-- −0.2 -->
      <g transform="translate(26.317187 113.740404) scale(0.1 -0.1)">
       <use xlink:href="#DejaVuSans-2212"/>
       <use xlink:href="#DejaVuSans-30" x="83.789062"/>
       <use xlink:href="#DejaVuSans-2e" x="147.412109"/>
       <use xlink:href="#DejaVuSans-32" x="179.199219"/>
      </g>
     </g>
    </g>
    <g id="ytick_6">
     <g id="line2d_12">
      <g>
       <use xlink:href="#maee9f7ea06" x="57.6" y="67.41353" style="stroke: #000000; stroke-width: 0.8"/>
      </g>
     </g>
     <g id="text_12">
      <!-- 0.0 -->
      <g transform="translate(34.696875 71.212749) scale(0.1 -0.1)">
       <use xlink:href="#DejaVuSans-30"/>
       <use xlink:href="#DejaVuSans-2e" x="63.623047"/>
       <use xlink:href="#DejaVuSans-30" x="95.410156"/>
      </g>
     </g>
    </g>
   </g>
   <g id="line2d_13">
    <path d="M 73.832727 74.328589 
L 74.483338 80.180636 
L 75.133948 90.598649 
L 75.784558 98.755985 
L 76.435169 105.18841 
L 77.085779 110.286086 
L 77.736389 114.335756 
L 78.386999 117.551562 
L 79.03761 120.099792 
L 79.68822 122.10739 
L 80.338831 123.673722 
L 80.989441 124.878686 
L 81.640051 125.784741 
L 82.290662 126.44299 
L 82.941272 126.895612 
L 83.591882 127.175459 
L 84.242492 127.310516 
L 85.543713 127.236295 
L 86.844934 126.818147 
L 88.146154 126.156248 
L 90.097985 124.859624 
L 92.700427 122.800924 
L 97.90531 118.290521 
L 103.760803 113.289777 
L 108.315074 109.655011 
L 112.869345 106.284477 
L 117.423619 103.172498 
L 121.977893 100.305689 
L 127.182773 97.308487 
L 132.387654 94.583021 
L 137.59254 92.106375 
L 143.448032 89.588564 
L 149.303525 87.328292 
L 155.159018 85.29778 
L 161.665118 83.283287 
L 168.171227 81.496525 
L 175.327934 79.762488 
L 183.135257 78.113418 
L 191.593198 76.574666 
L 200.701735 75.164277 
L 210.46089 73.893407 
L 220.870661 72.766922 
L 231.93103 71.78401 
L 244.943249 70.856256 
L 259.907279 70.030302 
L 276.82314 69.332713 
L 296.341449 68.755985 
L 319.76342 68.287748 
L 349.6915 67.919283 
L 391.981163 67.646837 
L 398.487273 67.621996 
L 398.487273 67.621996 
" clip-path="url(#pd56874d0e2)" style="fill: none; stroke: #1f77b4; stroke-width: 1.5; stroke-linecap: square"/>
   </g>
   <g id="line2d_14">
    <path d="M 73.832727 70.902289 
L 74.483338 73.908413 
L 75.133948 79.322033 
L 75.784558 83.670611 
L 76.435169 87.183705 
L 77.085779 90.031249 
L 77.736389 92.342623 
L 78.386999 94.21922 
L 79.03761 95.738505 
L 79.68822 96.961315 
L 80.338831 97.939562 
L 81.640051 99.316896 
L 82.941272 100.111418 
L 84.242492 100.491848 
L 85.543713 100.574585 
L 86.844934 100.443179 
L 88.796765 99.974334 
L 91.399205 99.036643 
L 95.302867 97.321465 
L 107.664464 91.707897 
L 113.519957 89.337715 
L 119.37545 87.191411 
L 125.881554 85.047945 
L 132.387654 83.136063 
L 139.544371 81.272444 
L 146.701082 79.628242 
L 154.508406 78.056232 
L 162.966341 76.579938 
L 172.074889 75.219436 
L 181.834043 73.983242 
L 192.243805 72.879469 
L 203.95479 71.857419 
L 216.967 70.943658 
L 231.93103 70.122368 
L 249.497508 69.398416 
L 268.36522 68.833855 
L 292.437788 68.339864 
L 324.968316 67.933275 
L 364.655531 67.669854 
L 398.487273 67.55467 
L 398.487273 67.55467 
" clip-path="url(#pd56874d0e2)" style="fill: none; stroke: #ff7f0e; stroke-width: 1.5; stroke-linecap: square"/>
   </g>
   <g id="line2d_15">
    <path d="M 73.832727 70.902289 
L 74.483338 73.908413 
L 75.133948 79.322033 
L 75.784558 83.670611 
L 76.435169 87.183705 
L 77.085779 90.031249 
L 77.736389 92.342623 
L 78.386999 94.21922 
L 79.03761 95.738505 
L 79.68822 96.961315 
L 80.338831 97.939562 
L 81.640051 99.316896 
L 82.941272 100.111418 
L 84.242492 100.491848 
L 85.543713 100.574585 
L 86.844934 100.443179 
L 88.796765 99.974739 
L 91.399205 99.036643 
L 95.302867 97.32106 
L 107.664464 91.707897 
L 113.519957 89.337715 
L 119.37545 87.191411 
L 125.881554 85.047945 
L 132.387654 83.136063 
L 139.544371 81.272444 
L 146.701082 79.628242 
L 154.508406 78.056232 
L 162.966341 76.579938 
L 172.074889 75.219436 
L 181.834043 73.983242 
L 192.243805 72.879469 
L 203.95479 71.857419 
L 216.967 70.943658 
L 231.93103 70.122368 
L 249.497508 69.398416 
L 268.36522 68.833855 
L 292.437788 68.339864 
L 324.968316 67.933275 
L 364.655531 67.669651 
L 398.487273 67.55467 
L 398.487273 67.55467 
" clip-path="url(#pd56874d0e2)" style="fill: none; stroke: #2ca02c; stroke-width: 1.5; stroke-linecap: square"/>
   </g>
   <g id="line2d_16">
    <path d="M 73.832727 67.344582 
L 74.483338 67.16694 
L 75.133948 66.696068 
L 76.435169 65.286693 
L 79.03761 62.183637 
L 80.338831 60.884984 
L 81.640051 59.829272 
L 82.941272 59.009604 
L 84.242492 58.400024 
L 86.194323 57.809507 
L 88.146154 57.513031 
L 90.748596 57.42786 
L 94.001647 57.619697 
L 99.206529 58.234144 
L 120.676669 61.031803 
L 132.387654 62.222166 
L 145.399863 63.286801 
L 158.412073 64.133237 
L 174.677327 64.951688 
L 192.894412 65.629404 
L 214.364552 66.192749 
L 241.690184 66.661188 
L 272.919479 66.980781 
L 313.907927 67.205065 
L 398.487273 67.367295 
L 398.487273 67.367295 
" clip-path="url(#pd56874d0e2)" style="fill: none; stroke: #d62728; stroke-width: 1.5; stroke-linecap: square"/>
   </g>
   <g id="line2d_17">
    <path d="M 73.832727 67.344582 
L 74.483338 67.16694 
L 75.133948 66.696068 
L 76.435169 65.286693 
L 79.03761 62.183637 
L 80.338831 60.884984 
L 81.640051 59.829272 
L 82.941272 59.009604 
L 84.242492 58.400024 
L 86.194323 57.809507 
L 88.146154 57.513031 
L 90.748596 57.42786 
L 94.001647 57.619697 
L 99.206529 58.234144 
L 121.327281 61.103589 
L 132.387654 62.222166 
L 145.399863 63.286801 
L 158.412073 64.133237 
L 174.677327 64.951688 
L 192.894412 65.629404 
L 214.364552 66.192749 
L 241.690184 66.661188 
L 272.919479 66.980781 
L 313.907927 67.205065 
L 398.487273 67.367295 
L 398.487273 67.367295 
" clip-path="url(#pd56874d0e2)" style="fill: none; stroke: #9467bd; stroke-width: 1.5; stroke-linecap: square"/>
   </g>
   <g id="line2d_18">
    <path d="M 73.832727 67.344582 
L 74.483338 67.16694 
L 75.133948 66.696068 
L 76.435169 65.287099 
L 79.03761 62.183637 
L 80.338831 60.884984 
L 81.640051 59.829272 
L 82.941272 59.009604 
L 84.242492 58.400024 
L 86.194323 57.809507 
L 88.146154 57.513031 
L 90.748596 57.42786 
L 94.001647 57.619697 
L 99.206529 58.234144 
L 120.676669 61.031803 
L 132.387654 62.222166 
L 145.399863 63.286801 
L 158.412073 64.133643 
L 175.327934 64.979673 
L 192.894412 65.629404 
L 214.364552 66.192749 
L 241.690184 66.661188 
L 272.919479 66.980781 
L 313.907927 67.205065 
L 398.487273 67.367295 
L 398.487273 67.367295 
" clip-path="url(#pd56874d0e2)" style="fill: none; stroke: #8c564b; stroke-width: 1.5; stroke-linecap: square"/>
   </g>
   <g id="line2d_19">
    <path d="M 73.832727 295.488 
L 74.483338 276.314832 
L 75.133948 241.755354 
L 75.784558 213.881582 
L 76.435169 191.161658 
L 77.085779 172.476194 
L 78.386999 144.076999 
L 79.68822 124.114886 
L 80.989441 109.826164 
L 82.290662 99.458036 
L 83.591882 91.855223 
L 84.893103 86.234253 
L 86.194323 82.051352 
L 87.495544 78.921933 
L 88.796765 76.569596 
L 90.097985 74.793886 
L 91.399205 73.448288 
L 92.700427 72.424616 
L 94.001647 71.642464 
L 95.953479 70.79542 
L 97.90531 70.218388 
L 100.50775 69.714562 
L 103.760803 69.33322 
L 108.965683 68.999026 
L 118.074231 68.696365 
L 137.59254 68.310967 
L 167.52061 67.938953 
L 208.509059 67.664987 
L 270.317051 67.495963 
L 388.077501 67.42296 
L 398.487273 67.421845 
L 398.487273 67.421845 
" clip-path="url(#pd56874d0e2)" style="fill: none; stroke: #e377c2; stroke-width: 1.5; stroke-linecap: square"/>
   </g>
   <g id="line2d_20">
    <path d="M 73.832727 64.128776 
L 74.483338 61.655375 
L 75.133948 57.655794 
L 75.784558 55.271214 
L 76.435169 54.023258 
L 77.085779 53.568 
L 77.736389 53.654996 
L 78.386999 54.102548 
L 79.68822 55.592429 
L 82.941272 59.927015 
L 84.242492 61.375933 
L 85.543713 62.58759 
L 86.844934 63.576788 
L 88.796765 64.700434 
L 90.748596 65.487859 
L 92.700427 66.030316 
L 95.302867 66.496119 
L 98.555919 66.824432 
L 103.110191 67.042226 
L 111.568126 67.178905 
L 138.893759 67.281313 
L 224.774323 67.384937 
L 398.487273 67.412314 
L 398.487273 67.412314 
" clip-path="url(#pd56874d0e2)" style="fill: none; stroke: #7f7f7f; stroke-width: 1.5; stroke-linecap: square"/>
   </g>
   <g id="line2d_21">
    <path d="M 73.832727 64.128776 
L 74.483338 61.655577 
L 75.133948 57.655996 
L 75.784558 55.271214 
L 76.435169 54.023258 
L 77.085779 53.568 
L 77.736389 53.654996 
L 78.386999 54.102548 
L 79.68822 55.592429 
L 82.941272 59.927015 
L 84.242492 61.375933 
L 85.543713 62.58759 
L 86.844934 63.576382 
L 88.796765 64.700637 
L 90.748596 65.487859 
L 92.700427 66.030316 
L 95.302867 66.495713 
L 98.555919 66.824432 
L 103.110191 67.042226 
L 111.568126 67.178905 
L 138.893759 67.281313 
L 224.774323 67.384937 
L 371.812257 67.411502 
L 398.487273 67.412314 
L 398.487273 67.412314 
" clip-path="url(#pd56874d0e2)" style="fill: none; stroke: #bcbd22; stroke-width: 1.5; stroke-linecap: square"/>
   </g>
   <g id="patch_3">
    <path d="M 57.6 307.584 
L 57.6 41.472 
" style="fill: none; stroke: #000000; stroke-width: 0.8; stroke-linejoin: miter; stroke-linecap: square"/>
   </g>
   <g id="patch_4">
    <path d="M 414.72 307.584 
L 414.72 41.472 
" style="fill: none; stroke: #000000; stroke-width: 0.8; stroke-linejoin: miter; stroke-linecap: square"/>
   </g>
   <g id="patch_5">
    <path d="M 57.6 307.584 
L 414.72 307.584 
" style="fill: none; stroke: #000000; stroke-width: 0.8; stroke-linejoin: miter; stroke-linecap: square"/>
   </g>
   <g id="patch_6">
    <path d="M 57.6 41.472 
L 414.72 41.472 
" style="fill: none; stroke: #000000; stroke-width: 0.8; stroke-linejoin: miter; stroke-linecap: square"/>
   </g>
   <g id="legend_1">
    <g id="patch_7">
     <path d="M 285.30125 302.584 
L 407.72 302.584 
Q 409.72 302.584 409.72 300.584 
L 409.72 166.97775 
Q 409.72 164.97775 407.72 164.97775 
L 285.30125 164.97775 
Q 283.30125 164.97775 283.30125 166.97775 
L 283.30125 300.584 
Q 283.30125 302.584 285.30125 302.584 
z
" style="fill: #ffffff; opacity: 0.8; stroke: #cccccc; stroke-linejoin: miter"/>
    </g>
    <g id="line2d_22">
     <path d="M 287.30125 173.076188 
L 297.30125 173.076188 
L 307.30125 173.076188 
" style="fill: none; stroke: #1f77b4; stroke-width: 1.5; stroke-linecap: square"/>
    </g>
    <g id="text_13">
     <!-- ('RNA_0', 'RNA_0') -->
     <g transform="translate(315.30125 176.576188) scale(0.1 -0.1)">
      <defs>
       <path id="DejaVuSans-28" d="M 1984 4856 
Q 1566 4138 1362 3434 
Q 1159 2731 1159 2009 
Q 1159 1288 1364 580 
Q 1569 -128 1984 -844 
L 1484 -844 
Q 1016 -109 783 600 
Q 550 1309 550 2009 
Q 550 2706 781 3412 
Q 1013 4119 1484 4856 
L 1984 4856 
z
" transform="scale(0.015625)"/>
       <path id="DejaVuSans-27" d="M 1147 4666 
L 1147 2931 
L 616 2931 
L 616 4666 
L 1147 4666 
z
" transform="scale(0.015625)"/>
       <path id="DejaVuSans-52" d="M 2841 2188 
Q 3044 2119 3236 1894 
Q 3428 1669 3622 1275 
L 4263 0 
L 3584 0 
L 2988 1197 
Q 2756 1666 2539 1819 
Q 2322 1972 1947 1972 
L 1259 1972 
L 1259 0 
L 628 0 
L 628 4666 
L 2053 4666 
Q 2853 4666 3247 4331 
Q 3641 3997 3641 3322 
Q 3641 2881 3436 2590 
Q 3231 2300 2841 2188 
z
M 1259 4147 
L 1259 2491 
L 2053 2491 
Q 2509 2491 2742 2702 
Q 2975 2913 2975 3322 
Q 2975 3731 2742 3939 
Q 2509 4147 2053 4147 
L 1259 4147 
z
" transform="scale(0.015625)"/>
       <path id="DejaVuSans-4e" d="M 628 4666 
L 1478 4666 
L 3547 763 
L 3547 4666 
L 4159 4666 
L 4159 0 
L 3309 0 
L 1241 3903 
L 1241 0 
L 628 0 
L 628 4666 
z
" transform="scale(0.015625)"/>
       <path id="DejaVuSans-41" d="M 2188 4044 
L 1331 1722 
L 3047 1722 
L 2188 4044 
z
M 1831 4666 
L 2547 4666 
L 4325 0 
L 3669 0 
L 3244 1197 
L 1141 1197 
L 716 0 
L 50 0 
L 1831 4666 
z
" transform="scale(0.015625)"/>
       <path id="DejaVuSans-5f" d="M 3263 -1063 
L 3263 -1509 
L -63 -1509 
L -63 -1063 
L 3263 -1063 
z
" transform="scale(0.015625)"/>
       <path id="DejaVuSans-2c" d="M 750 794 
L 1409 794 
L 1409 256 
L 897 -744 
L 494 -744 
L 750 256 
L 750 794 
z
" transform="scale(0.015625)"/>
       <path id="DejaVuSans-20" transform="scale(0.015625)"/>
       <path id="DejaVuSans-29" d="M 513 4856 
L 1013 4856 
Q 1481 4119 1714 3412 
Q 1947 2706 1947 2009 
Q 1947 1309 1714 600 
Q 1481 -109 1013 -844 
L 513 -844 
Q 928 -128 1133 580 
Q 1338 1288 1338 2009 
Q 1338 2731 1133 3434 
Q 928 4138 513 4856 
z
" transform="scale(0.015625)"/>
      </defs>
      <use xlink:href="#DejaVuSans-28"/>
      <use xlink:href="#DejaVuSans-27" x="39.013672"/>
      <use xlink:href="#DejaVuSans-52" x="66.503906"/>
      <use xlink:href="#DejaVuSans-4e" x="135.986328"/>
      <use xlink:href="#DejaVuSans-41" x="210.791016"/>
      <use xlink:href="#DejaVuSans-5f" x="279.199219"/>
      <use xlink:href="#DejaVuSans-30" x="329.199219"/>
      <use xlink:href="#DejaVuSans-27" x="392.822266"/>
      <use xlink:href="#DejaVuSans-2c" x="420.3125"/>
      <use xlink:href="#DejaVuSans-20" x="452.099609"/>
      <use xlink:href="#DejaVuSans-27" x="483.886719"/>
      <use xlink:href="#DejaVuSans-52" x="511.376953"/>
      <use xlink:href="#DejaVuSans-4e" x="580.859375"/>
      <use xlink:href="#DejaVuSans-41" x="655.664062"/>
      <use xlink:href="#DejaVuSans-5f" x="724.072266"/>
      <use xlink:href="#DejaVuSans-30" x="774.072266"/>
      <use xlink:href="#DejaVuSans-27" x="837.695312"/>
      <use xlink:href="#DejaVuSans-29" x="865.185547"/>
     </g>
    </g>
    <g id="line2d_23">
     <path d="M 287.30125 188.032438 
L 297.30125 188.032438 
L 307.30125 188.032438 
" style="fill: none; stroke: #ff7f0e; stroke-width: 1.5; stroke-linecap: square"/>
    </g>
    <g id="text_14">
     <!-- ('RNA_0', 'RNA_1') -->
     <g transform="translate(315.30125 191.532438) scale(0.1 -0.1)">
      <use xlink:href="#DejaVuSans-28"/>
      <use xlink:href="#DejaVuSans-27" x="39.013672"/>
      <use xlink:href="#DejaVuSans-52" x="66.503906"/>
      <use xlink:href="#DejaVuSans-4e" x="135.986328"/>
      <use xlink:href="#DejaVuSans-41" x="210.791016"/>
      <use xlink:href="#DejaVuSans-5f" x="279.199219"/>
      <use xlink:href="#DejaVuSans-30" x="329.199219"/>
      <use xlink:href="#DejaVuSans-27" x="392.822266"/>
      <use xlink:href="#DejaVuSans-2c" x="420.3125"/>
      <use xlink:href="#DejaVuSans-20" x="452.099609"/>
      <use xlink:href="#DejaVuSans-27" x="483.886719"/>
      <use xlink:href="#DejaVuSans-52" x="511.376953"/>
      <use xlink:href="#DejaVuSans-4e" x="580.859375"/>
      <use xlink:href="#DejaVuSans-41" x="655.664062"/>
      <use xlink:href="#DejaVuSans-5f" x="724.072266"/>
      <use xlink:href="#DejaVuSans-31" x="774.072266"/>
      <use xlink:href="#DejaVuSans-27" x="837.695312"/>
      <use xlink:href="#DejaVuSans-29" x="865.185547"/>
     </g>
    </g>
    <g id="line2d_24">
     <path d="M 287.30125 202.988688 
L 297.30125 202.988688 
L 307.30125 202.988688 
" style="fill: none; stroke: #2ca02c; stroke-width: 1.5; stroke-linecap: square"/>
    </g>
    <g id="text_15">
     <!-- ('RNA_0', 'RNA_2') -->
     <g transform="translate(315.30125 206.488688) scale(0.1 -0.1)">
      <use xlink:href="#DejaVuSans-28"/>
      <use xlink:href="#DejaVuSans-27" x="39.013672"/>
      <use xlink:href="#DejaVuSans-52" x="66.503906"/>
      <use xlink:href="#DejaVuSans-4e" x="135.986328"/>
      <use xlink:href="#DejaVuSans-41" x="210.791016"/>
      <use xlink:href="#DejaVuSans-5f" x="279.199219"/>
      <use xlink:href="#DejaVuSans-30" x="329.199219"/>
      <use xlink:href="#DejaVuSans-27" x="392.822266"/>
      <use xlink:href="#DejaVuSans-2c" x="420.3125"/>
      <use xlink:href="#DejaVuSans-20" x="452.099609"/>
      <use xlink:href="#DejaVuSans-27" x="483.886719"/>
      <use xlink:href="#DejaVuSans-52" x="511.376953"/>
      <use xlink:href="#DejaVuSans-4e" x="580.859375"/>
      <use xlink:href="#DejaVuSans-41" x="655.664062"/>
      <use xlink:href="#DejaVuSans-5f" x="724.072266"/>
      <use xlink:href="#DejaVuSans-32" x="774.072266"/>
      <use xlink:href="#DejaVuSans-27" x="837.695312"/>
      <use xlink:href="#DejaVuSans-29" x="865.185547"/>
     </g>
    </g>
    <g id="line2d_25">
     <path d="M 287.30125 217.944938 
L 297.30125 217.944938 
L 307.30125 217.944938 
" style="fill: none; stroke: #d62728; stroke-width: 1.5; stroke-linecap: square"/>
    </g>
    <g id="text_16">
     <!-- ('RNA_1', 'RNA_1') -->
     <g transform="translate(315.30125 221.444938) scale(0.1 -0.1)">
      <use xlink:href="#DejaVuSans-28"/>
      <use xlink:href="#DejaVuSans-27" x="39.013672"/>
      <use xlink:href="#DejaVuSans-52" x="66.503906"/>
      <use xlink:href="#DejaVuSans-4e" x="135.986328"/>
      <use xlink:href="#DejaVuSans-41" x="210.791016"/>
      <use xlink:href="#DejaVuSans-5f" x="279.199219"/>
      <use xlink:href="#DejaVuSans-31" x="329.199219"/>
      <use xlink:href="#DejaVuSans-27" x="392.822266"/>
      <use xlink:href="#DejaVuSans-2c" x="420.3125"/>
      <use xlink:href="#DejaVuSans-20" x="452.099609"/>
      <use xlink:href="#DejaVuSans-27" x="483.886719"/>
      <use xlink:href="#DejaVuSans-52" x="511.376953"/>
      <use xlink:href="#DejaVuSans-4e" x="580.859375"/>
      <use xlink:href="#DejaVuSans-41" x="655.664062"/>
      <use xlink:href="#DejaVuSans-5f" x="724.072266"/>
      <use xlink:href="#DejaVuSans-31" x="774.072266"/>
      <use xlink:href="#DejaVuSans-27" x="837.695312"/>
      <use xlink:href="#DejaVuSans-29" x="865.185547"/>
     </g>
    </g>
    <g id="line2d_26">
     <path d="M 287.30125 232.901187 
L 297.30125 232.901187 
L 307.30125 232.901187 
" style="fill: none; stroke: #9467bd; stroke-width: 1.5; stroke-linecap: square"/>
    </g>
    <g id="text_17">
     <!-- ('RNA_1', 'RNA_2') -->
     <g transform="translate(315.30125 236.401187) scale(0.1 -0.1)">
      <use xlink:href="#DejaVuSans-28"/>
      <use xlink:href="#DejaVuSans-27" x="39.013672"/>
      <use xlink:href="#DejaVuSans-52" x="66.503906"/>
      <use xlink:href="#DejaVuSans-4e" x="135.986328"/>
      <use xlink:href="#DejaVuSans-41" x="210.791016"/>
      <use xlink:href="#DejaVuSans-5f" x="279.199219"/>
      <use xlink:href="#DejaVuSans-31" x="329.199219"/>
      <use xlink:href="#DejaVuSans-27" x="392.822266"/>
      <use xlink:href="#DejaVuSans-2c" x="420.3125"/>
      <use xlink:href="#DejaVuSans-20" x="452.099609"/>
      <use xlink:href="#DejaVuSans-27" x="483.886719"/>
      <use xlink:href="#DejaVuSans-52" x="511.376953"/>
      <use xlink:href="#DejaVuSans-4e" x="580.859375"/>
      <use xlink:href="#DejaVuSans-41" x="655.664062"/>
      <use xlink:href="#DejaVuSans-5f" x="724.072266"/>
      <use xlink:href="#DejaVuSans-32" x="774.072266"/>
      <use xlink:href="#DejaVuSans-27" x="837.695312"/>
      <use xlink:href="#DejaVuSans-29" x="865.185547"/>
     </g>
    </g>
    <g id="line2d_27">
     <path d="M 287.30125 247.857438 
L 297.30125 247.857438 
L 307.30125 247.857438 
" style="fill: none; stroke: #8c564b; stroke-width: 1.5; stroke-linecap: square"/>
    </g>
    <g id="text_18">
     <!-- ('RNA_2', 'RNA_2') -->
     <g transform="translate(315.30125 251.357438) scale(0.1 -0.1)">
      <use xlink:href="#DejaVuSans-28"/>
      <use xlink:href="#DejaVuSans-27" x="39.013672"/>
      <use xlink:href="#DejaVuSans-52" x="66.503906"/>
      <use xlink:href="#DejaVuSans-4e" x="135.986328"/>
      <use xlink:href="#DejaVuSans-41" x="210.791016"/>
      <use xlink:href="#DejaVuSans-5f" x="279.199219"/>
      <use xlink:href="#DejaVuSans-32" x="329.199219"/>
      <use xlink:href="#DejaVuSans-27" x="392.822266"/>
      <use xlink:href="#DejaVuSans-2c" x="420.3125"/>
      <use xlink:href="#DejaVuSans-20" x="452.099609"/>
      <use xlink:href="#DejaVuSans-27" x="483.886719"/>
      <use xlink:href="#DejaVuSans-52" x="511.376953"/>
      <use xlink:href="#DejaVuSans-4e" x="580.859375"/>
      <use xlink:href="#DejaVuSans-41" x="655.664062"/>
      <use xlink:href="#DejaVuSans-5f" x="724.072266"/>
      <use xlink:href="#DejaVuSans-32" x="774.072266"/>
      <use xlink:href="#DejaVuSans-27" x="837.695312"/>
      <use xlink:href="#DejaVuSans-29" x="865.185547"/>
     </g>
    </g>
    <g id="line2d_28">
     <path d="M 287.30125 262.813688 
L 297.30125 262.813688 
L 307.30125 262.813688 
" style="fill: none; stroke: #e377c2; stroke-width: 1.5; stroke-linecap: square"/>
    </g>
    <g id="text_19">
     <!-- RNA_0 -->
     <g transform="translate(315.30125 266.313688) scale(0.1 -0.1)">
      <use xlink:href="#DejaVuSans-52"/>
      <use xlink:href="#DejaVuSans-4e" x="69.482422"/>
      <use xlink:href="#DejaVuSans-41" x="144.287109"/>
      <use xlink:href="#DejaVuSans-5f" x="212.695312"/>
      <use xlink:href="#DejaVuSans-30" x="262.695312"/>
     </g>
    </g>
    <g id="line2d_29">
     <path d="M 287.30125 277.769937 
L 297.30125 277.769937 
L 307.30125 277.769937 
" style="fill: none; stroke: #7f7f7f; stroke-width: 1.5; stroke-linecap: square"/>
    </g>
    <g id="text_20">
     <!-- RNA_1 -->
     <g transform="translate(315.30125 281.269937) scale(0.1 -0.1)">
      <use xlink:href="#DejaVuSans-52"/>
      <use xlink:href="#DejaVuSans-4e" x="69.482422"/>
      <use xlink:href="#DejaVuSans-41" x="144.287109"/>
      <use xlink:href="#DejaVuSans-5f" x="212.695312"/>
      <use xlink:href="#DejaVuSans-31" x="262.695312"/>
     </g>
    </g>
    <g id="line2d_30">
     <path d="M 287.30125 292.726187 
L 297.30125 292.726187 
L 307.30125 292.726187 
" style="fill: none; stroke: #bcbd22; stroke-width: 1.5; stroke-linecap: square"/>
    </g>
    <g id="text_21">
     <!-- RNA_2 -->
     <g transform="translate(315.30125 296.226187) scale(0.1 -0.1)">
      <use xlink:href="#DejaVuSans-52"/>
      <use xlink:href="#DejaVuSans-4e" x="69.482422"/>
      <use xlink:href="#DejaVuSans-41" x="144.287109"/>
      <use xlink:href="#DejaVuSans-5f" x="212.695312"/>
      <use xlink:href="#DejaVuSans-32" x="262.695312"/>
     </g>
    </g>
   </g>
  </g>
 </g>
 <defs>
  <clipPath id="pd56874d0e2">
   <rect x="57.6" y="41.472" width="357.12" height="266.112"/>
  </clipPath>
 </defs>
</svg>
