<?xml version="1.0" encoding="utf-8" standalone="no"?>
<!DOCTYPE svg PUBLIC "-//W3C//DTD SVG 1.1//EN"
  "http://www.w3.org/Graphics/SVG/1.1/DTD/svg11.dtd">
<svg xmlns:xlink="http://www.w3.org/1999/xlink" width="460.8pt" height="345.6pt" viewBox="0 0 460.8 345.6" xmlns="http://www.w3.org/2000/svg" version="1.1">
 <metadata>
  <rdf:RDF xmlns:dc="http://purl.org/dc/elements/1.1/" xmlns:cc="http://creativecommons.org/ns#" xmlns:rdf="http://www.w3.org/1999/02/22-rdf-syntax-ns#">
   <cc:Work>
    <dc:type rdf:resource="http://purl.org/dc/dcmitype/StillImage"/>
    <dc:date>2023-06-14T17:05:35.768835</dc:date>
    <dc:format>image/svg+xml</dc:format>
    <dc:creator>
     <cc:Agent>
      <dc:title>Matplotlib v3.6.0, https://matplotlib.org/</dc:title>
     </cc:Agent>
    </dc:creator>
   </cc:Work>
  </rdf:RDF>
 </metadata>
 <defs>
  <style type="text/css">*{stroke-linejoin: round; stroke-linecap: butt}</style>
 </defs>
 <g id="figure_1">
  <g id="patch_1">
   <path d="M 0 345.6 
L 460.8 345.6 
L 460.8 0 
L 0 0 
z
" style="fill: #ffffff"/>
  </g>
  <g id="axes_1">
   <g id="patch_2">
    <path d="M 57.6 307.584 
L 414.72 307.584 
L 414.72 41.472 
L 57.6 41.472 
z
" style="fill: #ffffff"/>
   </g>
   <g id="matplotlib.axis_1">
    <g id="xtick_1">
     <g id="line2d_1">
      <defs>
       <path id="mebd05618ba" d="M 0 0 
L 0 3.5 
" style="stroke: #000000; stroke-width: 0.8"/>
      </defs>
      <g>
       <use xlink:href="#mebd05618ba" x="73.832727" y="307.584" style="stroke: #000000; stroke-width: 0.8"/>
      </g>
     </g>
     <g id="text_1">
      <!-- 0 -->
      <g transform="translate(70.651477 322.182437) scale(0.1 -0.1)">
       <defs>
        <path id="DejaVuSans-30" d="M 2034 4250 
Q 1547 4250 1301 3770 
Q 1056 3291 1056 2328 
Q 1056 1369 1301 889 
Q 1547 409 2034 409 
Q 2525 409 2770 889 
Q 3016 1369 3016 2328 
Q 3016 3291 2770 3770 
Q 2525 4250 2034 4250 
z
M 2034 4750 
Q 2819 4750 3233 4129 
Q 3647 3509 3647 2328 
Q 3647 1150 3233 529 
Q 2819 -91 2034 -91 
Q 1250 -91 836 529 
Q 422 1150 422 2328 
Q 422 3509 836 4129 
Q 1250 4750 2034 4750 
z
" transform="scale(0.015625)"/>
       </defs>
       <use xlink:href="#DejaVuSans-30"/>
      </g>
     </g>
    </g>
    <g id="xtick_2">
     <g id="line2d_2">
      <g>
       <use xlink:href="#mebd05618ba" x="138.763636" y="307.584" style="stroke: #000000; stroke-width: 0.8"/>
      </g>
     </g>
     <g id="text_2">
      <!-- 100 -->
      <g transform="translate(129.219886 322.182437) scale(0.1 -0.1)">
       <defs>
        <path id="DejaVuSans-31" d="M 794 531 
L 1825 531 
L 1825 4091 
L 703 3866 
L 703 4441 
L 1819 4666 
L 2450 4666 
L 2450 531 
L 3481 531 
L 3481 0 
L 794 0 
L 794 531 
z
" transform="scale(0.015625)"/>
       </defs>
       <use xlink:href="#DejaVuSans-31"/>
       <use xlink:href="#DejaVuSans-30" x="63.623047"/>
       <use xlink:href="#DejaVuSans-30" x="127.246094"/>
      </g>
     </g>
    </g>
    <g id="xtick_3">
     <g id="line2d_3">
      <g>
       <use xlink:href="#mebd05618ba" x="203.694545" y="307.584" style="stroke: #000000; stroke-width: 0.8"/>
      </g>
     </g>
     <g id="text_3">
      <!-- 200 -->
      <g transform="translate(194.150795 322.182437) scale(0.1 -0.1)">
       <defs>
        <path id="DejaVuSans-32" d="M 1228 531 
L 3431 531 
L 3431 0 
L 469 0 
L 469 531 
Q 828 903 1448 1529 
Q 2069 2156 2228 2338 
Q 2531 2678 2651 2914 
Q 2772 3150 2772 3378 
Q 2772 3750 2511 3984 
Q 2250 4219 1831 4219 
Q 1534 4219 1204 4116 
Q 875 4013 500 3803 
L 500 4441 
Q 881 4594 1212 4672 
Q 1544 4750 1819 4750 
Q 2544 4750 2975 4387 
Q 3406 4025 3406 3419 
Q 3406 3131 3298 2873 
Q 3191 2616 2906 2266 
Q 2828 2175 2409 1742 
Q 1991 1309 1228 531 
z
" transform="scale(0.015625)"/>
       </defs>
       <use xlink:href="#DejaVuSans-32"/>
       <use xlink:href="#DejaVuSans-30" x="63.623047"/>
       <use xlink:href="#DejaVuSans-30" x="127.246094"/>
      </g>
     </g>
    </g>
    <g id="xtick_4">
     <g id="line2d_4">
      <g>
       <use xlink:href="#mebd05618ba" x="268.625455" y="307.584" style="stroke: #000000; stroke-width: 0.8"/>
      </g>
     </g>
     <g id="text_4">
      <!-- 300 -->
      <g transform="translate(259.081705 322.182437) scale(0.1 -0.1)">
       <defs>
        <path id="DejaVuSans-33" d="M 2597 2516 
Q 3050 2419 3304 2112 
Q 3559 1806 3559 1356 
Q 3559 666 3084 287 
Q 2609 -91 1734 -91 
Q 1441 -91 1130 -33 
Q 819 25 488 141 
L 488 750 
Q 750 597 1062 519 
Q 1375 441 1716 441 
Q 2309 441 2620 675 
Q 2931 909 2931 1356 
Q 2931 1769 2642 2001 
Q 2353 2234 1838 2234 
L 1294 2234 
L 1294 2753 
L 1863 2753 
Q 2328 2753 2575 2939 
Q 2822 3125 2822 3475 
Q 2822 3834 2567 4026 
Q 2313 4219 1838 4219 
Q 1578 4219 1281 4162 
Q 984 4106 628 3988 
L 628 4550 
Q 988 4650 1302 4700 
Q 1616 4750 1894 4750 
Q 2613 4750 3031 4423 
Q 3450 4097 3450 3541 
Q 3450 3153 3228 2886 
Q 3006 2619 2597 2516 
z
" transform="scale(0.015625)"/>
       </defs>
       <use xlink:href="#DejaVuSans-33"/>
       <use xlink:href="#DejaVuSans-30" x="63.623047"/>
       <use xlink:href="#DejaVuSans-30" x="127.246094"/>
      </g>
     </g>
    </g>
    <g id="xtick_5">
     <g id="line2d_5">
      <g>
       <use xlink:href="#mebd05618ba" x="333.556364" y="307.584" style="stroke: #000000; stroke-width: 0.8"/>
      </g>
     </g>
     <g id="text_5">
      <!-- 400 -->
      <g transform="translate(324.012614 322.182437) scale(0.1 -0.1)">
       <defs>
        <path id="DejaVuSans-34" d="M 2419 4116 
L 825 1625 
L 2419 1625 
L 2419 4116 
z
M 2253 4666 
L 3047 4666 
L 3047 1625 
L 3713 1625 
L 3713 1100 
L 3047 1100 
L 3047 0 
L 2419 0 
L 2419 1100 
L 313 1100 
L 313 1709 
L 2253 4666 
z
" transform="scale(0.015625)"/>
       </defs>
       <use xlink:href="#DejaVuSans-34"/>
       <use xlink:href="#DejaVuSans-30" x="63.623047"/>
       <use xlink:href="#DejaVuSans-30" x="127.246094"/>
      </g>
     </g>
    </g>
    <g id="xtick_6">
     <g id="line2d_6">
      <g>
       <use xlink:href="#mebd05618ba" x="398.487273" y="307.584" style="stroke: #000000; stroke-width: 0.8"/>
      </g>
     </g>
     <g id="text_6">
      <!-- 500 -->
      <g transform="translate(388.943523 322.182437) scale(0.1 -0.1)">
       <defs>
        <path id="DejaVuSans-35" d="M 691 4666 
L 3169 4666 
L 3169 4134 
L 1269 4134 
L 1269 2991 
Q 1406 3038 1543 3061 
Q 1681 3084 1819 3084 
Q 2600 3084 3056 2656 
Q 3513 2228 3513 1497 
Q 3513 744 3044 326 
Q 2575 -91 1722 -91 
Q 1428 -91 1123 -41 
Q 819 9 494 109 
L 494 744 
Q 775 591 1075 516 
Q 1375 441 1709 441 
Q 2250 441 2565 725 
Q 2881 1009 2881 1497 
Q 2881 1984 2565 2268 
Q 2250 2553 1709 2553 
Q 1456 2553 1204 2497 
Q 953 2441 691 2322 
L 691 4666 
z
" transform="scale(0.015625)"/>
       </defs>
       <use xlink:href="#DejaVuSans-35"/>
       <use xlink:href="#DejaVuSans-30" x="63.623047"/>
       <use xlink:href="#DejaVuSans-30" x="127.246094"/>
      </g>
     </g>
    </g>
   </g>
   <g id="matplotlib.axis_2">
    <g id="ytick_1">
     <g id="line2d_7">
      <defs>
       <path id="m1258c1452b" d="M 0 0 
L -3.5 0 
" style="stroke: #000000; stroke-width: 0.8"/>
      </defs>
      <g>
       <use xlink:href="#m1258c1452b" x="57.6" y="306.867301" style="stroke: #000000; stroke-width: 0.8"/>
      </g>
     </g>
     <g id="text_7">
      <!-- 10 -->
      <g transform="translate(37.875 310.66652) scale(0.1 -0.1)">
       <use xlink:href="#DejaVuSans-31"/>
       <use xlink:href="#DejaVuSans-30" x="63.623047"/>
      </g>
     </g>
    </g>
    <g id="ytick_2">
     <g id="line2d_8">
      <g>
       <use xlink:href="#m1258c1452b" x="57.6" y="275.388491" style="stroke: #000000; stroke-width: 0.8"/>
      </g>
     </g>
     <g id="text_8">
      <!-- 15 -->
      <g transform="translate(37.875 279.18771) scale(0.1 -0.1)">
       <use xlink:href="#DejaVuSans-31"/>
       <use xlink:href="#DejaVuSans-35" x="63.623047"/>
      </g>
     </g>
    </g>
    <g id="ytick_3">
     <g id="line2d_9">
      <g>
       <use xlink:href="#m1258c1452b" x="57.6" y="243.909681" style="stroke: #000000; stroke-width: 0.8"/>
      </g>
     </g>
     <g id="text_9">
      <!-- 20 -->
      <g transform="translate(37.875 247.7089) scale(0.1 -0.1)">
       <use xlink:href="#DejaVuSans-32"/>
       <use xlink:href="#DejaVuSans-30" x="63.623047"/>
      </g>
     </g>
    </g>
    <g id="ytick_4">
     <g id="line2d_10">
      <g>
       <use xlink:href="#m1258c1452b" x="57.6" y="212.430871" style="stroke: #000000; stroke-width: 0.8"/>
      </g>
     </g>
     <g id="text_10">
      <!-- 25 -->
      <g transform="translate(37.875 216.23009) scale(0.1 -0.1)">
       <use xlink:href="#DejaVuSans-32"/>
       <use xlink:href="#DejaVuSans-35" x="63.623047"/>
      </g>
     </g>
    </g>
    <g id="ytick_5">
     <g id="line2d_11">
      <g>
       <use xlink:href="#m1258c1452b" x="57.6" y="180.952061" style="stroke: #000000; stroke-width: 0.8"/>
      </g>
     </g>
     <g id="text_11">
      <!-- 30 -->
      <g transform="translate(37.875 184.75128) scale(0.1 -0.1)">
       <use xlink:href="#DejaVuSans-33"/>
       <use xlink:href="#DejaVuSans-30" x="63.623047"/>
      </g>
     </g>
    </g>
    <g id="ytick_6">
     <g id="line2d_12">
      <g>
       <use xlink:href="#m1258c1452b" x="57.6" y="149.473251" style="stroke: #000000; stroke-width: 0.8"/>
      </g>
     </g>
     <g id="text_12">
      <!-- 35 -->
      <g transform="translate(37.875 153.272469) scale(0.1 -0.1)">
       <use xlink:href="#DejaVuSans-33"/>
       <use xlink:href="#DejaVuSans-35" x="63.623047"/>
      </g>
     </g>
    </g>
    <g id="ytick_7">
     <g id="line2d_13">
      <g>
       <use xlink:href="#m1258c1452b" x="57.6" y="117.994441" style="stroke: #000000; stroke-width: 0.8"/>
      </g>
     </g>
     <g id="text_13">
      <!-- 40 -->
      <g transform="translate(37.875 121.793659) scale(0.1 -0.1)">
       <use xlink:href="#DejaVuSans-34"/>
       <use xlink:href="#DejaVuSans-30" x="63.623047"/>
      </g>
     </g>
    </g>
    <g id="ytick_8">
     <g id="line2d_14">
      <g>
       <use xlink:href="#m1258c1452b" x="57.6" y="86.515631" style="stroke: #000000; stroke-width: 0.8"/>
      </g>
     </g>
     <g id="text_14">
      <!-- 45 -->
      <g transform="translate(37.875 90.314849) scale(0.1 -0.1)">
       <use xlink:href="#DejaVuSans-34"/>
       <use xlink:href="#DejaVuSans-35" x="63.623047"/>
      </g>
     </g>
    </g>
    <g id="ytick_9">
     <g id="line2d_15">
      <g>
       <use xlink:href="#m1258c1452b" x="57.6" y="55.036821" style="stroke: #000000; stroke-width: 0.8"/>
      </g>
     </g>
     <g id="text_15">
      <!-- 50 -->
      <g transform="translate(37.875 58.836039) scale(0.1 -0.1)">
       <use xlink:href="#DejaVuSans-35"/>
       <use xlink:href="#DejaVuSans-30" x="63.623047"/>
      </g>
     </g>
    </g>
   </g>
   <g id="line2d_16">
    <path d="M 73.832727 86.33863 
L 74.483338 86.54337 
L 75.133948 87.094643 
L 75.784558 87.916293 
L 77.085779 90.153159 
L 78.386999 92.931691 
L 80.338831 97.69703 
L 83.591882 106.361796 
L 90.748596 125.57023 
L 94.652258 135.40719 
L 98.555919 144.647774 
L 102.459581 153.285402 
L 106.363243 161.341352 
L 110.266905 168.846761 
L 114.170567 175.835998 
L 118.074231 182.343044 
L 121.977893 188.400479 
L 125.881554 194.03914 
L 129.785216 199.28775 
L 133.688878 204.173315 
L 137.59254 208.720861 
L 141.496202 212.953852 
L 145.399863 216.893951 
L 149.954132 221.147573 
L 154.508406 225.059872 
L 159.06268 228.658302 
L 163.616948 231.968029 
L 168.171227 235.012219 
L 172.725496 237.812198 
L 177.930382 240.738228 
L 183.135257 243.397663 
L 188.340143 245.8147 
L 194.195636 248.27164 
L 200.051128 250.478233 
L 205.906621 252.459997 
L 212.412721 254.426042 
L 218.91883 256.170895 
L 226.075537 257.864341 
L 233.882861 259.475039 
L 242.340801 260.978455 
L 251.449339 262.35695 
L 261.208493 263.599488 
L 271.618265 264.701421 
L 283.32925 265.71411 
L 296.341449 266.61176 
L 311.305499 267.411339 
L 328.221361 268.087041 
L 348.390286 268.661838 
L 373.113471 269.130573 
L 398.487273 269.434999 
L 398.487273 269.434999 
" clip-path="url(#p84e5182b89)" style="fill: none; stroke: #1f77b4; stroke-width: 1.5; stroke-linecap: square"/>
   </g>
   <g id="line2d_17">
    <path d="M 73.832727 86.338582 
L 74.483338 86.441876 
L 75.133948 86.723181 
L 76.435169 87.685855 
L 77.736389 89.025179 
L 79.68822 91.471228 
L 82.290662 95.168028 
L 94.652258 113.304129 
L 99.206529 119.345533 
L 103.110191 124.174299 
L 107.013852 128.690516 
L 110.917514 132.91001 
L 115.471788 137.481105 
L 120.026062 141.700286 
L 124.580331 145.594094 
L 129.134604 149.187455 
L 133.688878 152.503523 
L 138.243147 155.563624 
L 143.448032 158.772747 
L 148.652913 161.700253 
L 153.857794 164.370856 
L 159.06268 166.80713 
L 164.918172 169.293323 
L 170.773665 171.535364 
L 177.279765 173.769264 
L 183.785874 175.760646 
L 190.942581 177.702398 
L 198.099298 179.41346 
L 205.906621 181.048991 
L 214.364552 182.583749 
L 223.473099 183.998917 
L 233.232254 185.28227 
L 243.642015 186.427482 
L 255.353 187.487026 
L 268.36522 188.433057 
L 282.678633 189.250144 
L 299.594514 189.982837 
L 319.112823 190.59522 
L 342.534794 191.098004 
L 371.812257 191.492858 
L 398.487273 191.710951 
L 398.487273 191.710951 
" clip-path="url(#p84e5182b89)" style="fill: none; stroke: #ff7f0e; stroke-width: 1.5; stroke-linecap: square"/>
   </g>
   <g id="line2d_18">
    <path d="M 73.832727 86.338582 
L 74.483338 86.441876 
L 75.133948 86.723181 
L 76.435169 87.685855 
L 77.736389 89.025179 
L 79.68822 91.471228 
L 82.290662 95.168028 
L 94.652258 113.304153 
L 99.206529 119.345533 
L 103.110191 124.174299 
L 107.013852 128.690516 
L 110.917514 132.91001 
L 115.471788 137.481105 
L 120.026062 141.700286 
L 124.580331 145.594094 
L 129.134604 149.187455 
L 133.688878 152.503523 
L 138.243147 155.563624 
L 143.448032 158.772747 
L 148.652913 161.700253 
L 153.857794 164.370856 
L 159.06268 166.80713 
L 164.918172 169.293323 
L 170.773665 171.535364 
L 177.279765 173.769264 
L 183.785874 175.760646 
L 190.942581 177.702398 
L 198.099298 179.41346 
L 205.906621 181.048991 
L 214.364552 182.583749 
L 223.473099 183.998917 
L 233.232254 185.28227 
L 243.642015 186.427482 
L 255.353 187.487026 
L 268.36522 188.433057 
L 282.678633 189.250144 
L 299.594514 189.982837 
L 319.112823 190.59522 
L 342.534794 191.097992 
L 371.812257 191.492858 
L 398.487273 191.710951 
L 398.487273 191.710951 
" clip-path="url(#p84e5182b89)" style="fill: none; stroke: #2ca02c; stroke-width: 1.5; stroke-linecap: square"/>
   </g>
   <g id="line2d_19">
    <path d="M 73.832727 86.338558 
L 76.435169 86.242708 
L 78.386999 85.947594 
L 80.338831 85.453312 
L 82.941272 84.558628 
L 86.844934 82.925079 
L 101.808972 76.377481 
L 107.664464 74.135907 
L 114.170567 71.893662 
L 120.676669 69.892133 
L 127.833385 67.939381 
L 134.990097 66.2181 
L 142.797421 64.572326 
L 151.255356 63.027446 
L 160.363904 61.602359 
L 170.123058 60.309531 
L 180.532819 59.155181 
L 192.243805 58.086474 
L 205.256014 57.131533 
L 219.569437 56.306305 
L 235.834692 55.590159 
L 255.353 54.963138 
L 278.774971 54.447842 
L 307.401838 54.049457 
L 345.787839 53.752542 
L 398.487273 53.568024 
L 398.487273 53.568024 
" clip-path="url(#p84e5182b89)" style="fill: none; stroke: #d62728; stroke-width: 1.5; stroke-linecap: square"/>
   </g>
   <g id="line2d_20">
    <path d="M 73.832727 86.338558 
L 76.435169 86.242708 
L 78.386999 85.947594 
L 80.338831 85.453312 
L 82.941272 84.558628 
L 86.844934 82.925079 
L 101.808972 76.377481 
L 107.664464 74.135907 
L 114.170567 71.893662 
L 120.676669 69.892133 
L 127.833385 67.939381 
L 134.990097 66.2181 
L 142.797421 64.572326 
L 151.255356 63.027446 
L 160.363904 61.602359 
L 170.123058 60.309531 
L 180.532819 59.155157 
L 192.243805 58.08645 
L 205.256014 57.131509 
L 219.569437 56.306281 
L 235.834692 55.590183 
L 255.353 54.963186 
L 278.774971 54.447866 
L 307.401838 54.049481 
L 345.787839 53.75247 
L 398.487273 53.568 
L 398.487273 53.568 
" clip-path="url(#p84e5182b89)" style="fill: none; stroke: #9467bd; stroke-width: 1.5; stroke-linecap: square"/>
   </g>
   <g id="line2d_21">
    <path d="M 73.832727 86.338534 
L 76.435169 86.242684 
L 78.386999 85.947594 
L 80.338831 85.453312 
L 82.941272 84.558628 
L 86.844934 82.925079 
L 101.808972 76.377505 
L 107.664464 74.135956 
L 114.170567 71.89371 
L 120.676669 69.892157 
L 127.833385 67.939405 
L 134.990097 66.218124 
L 142.797421 64.57235 
L 151.255356 63.02747 
L 160.363904 61.602407 
L 170.123058 60.309579 
L 180.532819 59.155181 
L 192.243805 58.086474 
L 205.256014 57.131533 
L 219.569437 56.306257 
L 235.834692 55.590135 
L 255.353 54.963162 
L 278.774971 54.447842 
L 307.401838 54.049481 
L 345.787839 53.752494 
L 398.487273 53.568024 
L 398.487273 53.568024 
" clip-path="url(#p84e5182b89)" style="fill: none; stroke: #8c564b; stroke-width: 1.5; stroke-linecap: square"/>
   </g>
   <g id="line2d_22">
    <path d="M 73.832727 244.618285 
L 75.133948 256.988522 
L 76.435169 265.66173 
L 77.736389 271.883089 
L 79.03761 276.42277 
L 80.338831 279.780381 
L 81.640051 282.291874 
L 82.941272 284.189412 
L 84.242492 285.636744 
L 85.543713 286.751226 
L 86.844934 287.618015 
L 88.796765 288.585625 
L 90.748596 289.278709 
L 93.351036 289.932796 
L 96.604089 290.494793 
L 101.15836 291.037246 
L 108.315074 291.643601 
L 120.026062 292.390908 
L 135.640709 293.153597 
L 153.857794 293.811131 
L 175.327934 294.355415 
L 202.002959 294.795799 
L 236.485308 295.126151 
L 285.281081 295.350182 
L 366.607362 295.472035 
L 398.487273 295.488 
L 398.487273 295.488 
" clip-path="url(#p84e5182b89)" style="fill: none; stroke: #e377c2; stroke-width: 1.5; stroke-linecap: square"/>
   </g>
   <g id="line2d_23">
    <path d="M 73.832727 244.618285 
L 74.483338 244.521031 
L 75.784558 243.94322 
L 80.989441 240.939605 
L 82.941272 240.164511 
L 84.893103 239.596919 
L 87.495544 239.083952 
L 90.748596 238.700206 
L 95.302867 238.421483 
L 103.110191 238.216563 
L 122.6285 238.003898 
L 166.870003 237.757633 
L 237.135915 237.611877 
L 396.535442 237.557876 
L 398.487273 237.557768 
L 398.487273 237.557768 
" clip-path="url(#p84e5182b89)" style="fill: none; stroke: #7f7f7f; stroke-width: 1.5; stroke-linecap: square"/>
   </g>
   <g id="line2d_24">
    <path d="M 73.832727 244.618285 
L 74.483338 244.521031 
L 75.784558 243.943232 
L 80.989441 240.939617 
L 82.941272 240.164523 
L 84.893103 239.596931 
L 87.495544 239.08394 
L 90.748596 238.700206 
L 95.302867 238.421483 
L 103.110191 238.216587 
L 122.6285 238.003898 
L 166.870003 237.757645 
L 237.135915 237.611865 
L 396.535442 237.557876 
L 398.487273 237.557768 
L 398.487273 237.557768 
" clip-path="url(#p84e5182b89)" style="fill: none; stroke: #bcbd22; stroke-width: 1.5; stroke-linecap: square"/>
   </g>
   <g id="patch_3">
    <path d="M 57.6 307.584 
L 57.6 41.472 
" style="fill: none; stroke: #000000; stroke-width: 0.8; stroke-linejoin: miter; stroke-linecap: square"/>
   </g>
   <g id="patch_4">
    <path d="M 414.72 307.584 
L 414.72 41.472 
" style="fill: none; stroke: #000000; stroke-width: 0.8; stroke-linejoin: miter; stroke-linecap: square"/>
   </g>
   <g id="patch_5">
    <path d="M 57.6 307.584 
L 414.72 307.584 
" style="fill: none; stroke: #000000; stroke-width: 0.8; stroke-linejoin: miter; stroke-linecap: square"/>
   </g>
   <g id="patch_6">
    <path d="M 57.6 41.472 
L 414.72 41.472 
" style="fill: none; stroke: #000000; stroke-width: 0.8; stroke-linejoin: miter; stroke-linecap: square"/>
   </g>
   <g id="legend_1">
    <g id="patch_7">
     <path d="M 285.30125 184.07825 
L 407.72 184.07825 
Q 409.72 184.07825 409.72 182.07825 
L 409.72 48.472 
Q 409.72 46.472 407.72 46.472 
L 285.30125 46.472 
Q 283.30125 46.472 283.30125 48.472 
L 283.30125 182.07825 
Q 283.30125 184.07825 285.30125 184.07825 
z
" style="fill: #ffffff; opacity: 0.8; stroke: #cccccc; stroke-linejoin: miter"/>
    </g>
    <g id="line2d_25">
     <path d="M 287.30125 54.570438 
L 297.30125 54.570438 
L 307.30125 54.570438 
" style="fill: none; stroke: #1f77b4; stroke-width: 1.5; stroke-linecap: square"/>
    </g>
    <g id="text_16">
     <!-- ('RNA_0', 'RNA_0') -->
     <g transform="translate(315.30125 58.070438) scale(0.1 -0.1)">
      <defs>
       <path id="DejaVuSans-28" d="M 1984 4856 
Q 1566 4138 1362 3434 
Q 1159 2731 1159 2009 
Q 1159 1288 1364 580 
Q 1569 -128 1984 -844 
L 1484 -844 
Q 1016 -109 783 600 
Q 550 1309 550 2009 
Q 550 2706 781 3412 
Q 1013 4119 1484 4856 
L 1984 4856 
z
" transform="scale(0.015625)"/>
       <path id="DejaVuSans-27" d="M 1147 4666 
L 1147 2931 
L 616 2931 
L 616 4666 
L 1147 4666 
z
" transform="scale(0.015625)"/>
       <path id="DejaVuSans-52" d="M 2841 2188 
Q 3044 2119 3236 1894 
Q 3428 1669 3622 1275 
L 4263 0 
L 3584 0 
L 2988 1197 
Q 2756 1666 2539 1819 
Q 2322 1972 1947 1972 
L 1259 1972 
L 1259 0 
L 628 0 
L 628 4666 
L 2053 4666 
Q 2853 4666 3247 4331 
Q 3641 3997 3641 3322 
Q 3641 2881 3436 2590 
Q 3231 2300 2841 2188 
z
M 1259 4147 
L 1259 2491 
L 2053 2491 
Q 2509 2491 2742 2702 
Q 2975 2913 2975 3322 
Q 2975 3731 2742 3939 
Q 2509 4147 2053 4147 
L 1259 4147 
z
" transform="scale(0.015625)"/>
       <path id="DejaVuSans-4e" d="M 628 4666 
L 1478 4666 
L 3547 763 
L 3547 4666 
L 4159 4666 
L 4159 0 
L 3309 0 
L 1241 3903 
L 1241 0 
L 628 0 
L 628 4666 
z
" transform="scale(0.015625)"/>
       <path id="DejaVuSans-41" d="M 2188 4044 
L 1331 1722 
L 3047 1722 
L 2188 4044 
z
M 1831 4666 
L 2547 4666 
L 4325 0 
L 3669 0 
L 3244 1197 
L 1141 1197 
L 716 0 
L 50 0 
L 1831 4666 
z
" transform="scale(0.015625)"/>
       <path id="DejaVuSans-5f" d="M 3263 -1063 
L 3263 -1509 
L -63 -1509 
L -63 -1063 
L 3263 -1063 
z
" transform="scale(0.015625)"/>
       <path id="DejaVuSans-2c" d="M 750 794 
L 1409 794 
L 1409 256 
L 897 -744 
L 494 -744 
L 750 256 
L 750 794 
z
" transform="scale(0.015625)"/>
       <path id="DejaVuSans-20" transform="scale(0.015625)"/>
       <path id="DejaVuSans-29" d="M 513 4856 
L 1013 4856 
Q 1481 4119 1714 3412 
Q 1947 2706 1947 2009 
Q 1947 1309 1714 600 
Q 1481 -109 1013 -844 
L 513 -844 
Q 928 -128 1133 580 
Q 1338 1288 1338 2009 
Q 1338 2731 1133 3434 
Q 928 4138 513 4856 
z
" transform="scale(0.015625)"/>
      </defs>
      <use xlink:href="#DejaVuSans-28"/>
      <use xlink:href="#DejaVuSans-27" x="39.013672"/>
      <use xlink:href="#DejaVuSans-52" x="66.503906"/>
      <use xlink:href="#DejaVuSans-4e" x="135.986328"/>
      <use xlink:href="#DejaVuSans-41" x="210.791016"/>
      <use xlink:href="#DejaVuSans-5f" x="279.199219"/>
      <use xlink:href="#DejaVuSans-30" x="329.199219"/>
      <use xlink:href="#DejaVuSans-27" x="392.822266"/>
      <use xlink:href="#DejaVuSans-2c" x="420.3125"/>
      <use xlink:href="#DejaVuSans-20" x="452.099609"/>
      <use xlink:href="#DejaVuSans-27" x="483.886719"/>
      <use xlink:href="#DejaVuSans-52" x="511.376953"/>
      <use xlink:href="#DejaVuSans-4e" x="580.859375"/>
      <use xlink:href="#DejaVuSans-41" x="655.664062"/>
      <use xlink:href="#DejaVuSans-5f" x="724.072266"/>
      <use xlink:href="#DejaVuSans-30" x="774.072266"/>
      <use xlink:href="#DejaVuSans-27" x="837.695312"/>
      <use xlink:href="#DejaVuSans-29" x="865.185547"/>
     </g>
    </g>
    <g id="line2d_26">
     <path d="M 287.30125 69.526688 
L 297.30125 69.526688 
L 307.30125 69.526688 
" style="fill: none; stroke: #ff7f0e; stroke-width: 1.5; stroke-linecap: square"/>
    </g>
    <g id="text_17">
     <!-- ('RNA_0', 'RNA_1') -->
     <g transform="translate(315.30125 73.026688) scale(0.1 -0.1)">
      <use xlink:href="#DejaVuSans-28"/>
      <use xlink:href="#DejaVuSans-27" x="39.013672"/>
      <use xlink:href="#DejaVuSans-52" x="66.503906"/>
      <use xlink:href="#DejaVuSans-4e" x="135.986328"/>
      <use xlink:href="#DejaVuSans-41" x="210.791016"/>
      <use xlink:href="#DejaVuSans-5f" x="279.199219"/>
      <use xlink:href="#DejaVuSans-30" x="329.199219"/>
      <use xlink:href="#DejaVuSans-27" x="392.822266"/>
      <use xlink:href="#DejaVuSans-2c" x="420.3125"/>
      <use xlink:href="#DejaVuSans-20" x="452.099609"/>
      <use xlink:href="#DejaVuSans-27" x="483.886719"/>
      <use xlink:href="#DejaVuSans-52" x="511.376953"/>
      <use xlink:href="#DejaVuSans-4e" x="580.859375"/>
      <use xlink:href="#DejaVuSans-41" x="655.664062"/>
      <use xlink:href="#DejaVuSans-5f" x="724.072266"/>
      <use xlink:href="#DejaVuSans-31" x="774.072266"/>
      <use xlink:href="#DejaVuSans-27" x="837.695312"/>
      <use xlink:href="#DejaVuSans-29" x="865.185547"/>
     </g>
    </g>
    <g id="line2d_27">
     <path d="M 287.30125 84.482938 
L 297.30125 84.482938 
L 307.30125 84.482938 
" style="fill: none; stroke: #2ca02c; stroke-width: 1.5; stroke-linecap: square"/>
    </g>
    <g id="text_18">
     <!-- ('RNA_0', 'RNA_2') -->
     <g transform="translate(315.30125 87.982938) scale(0.1 -0.1)">
      <use xlink:href="#DejaVuSans-28"/>
      <use xlink:href="#DejaVuSans-27" x="39.013672"/>
      <use xlink:href="#DejaVuSans-52" x="66.503906"/>
      <use xlink:href="#DejaVuSans-4e" x="135.986328"/>
      <use xlink:href="#DejaVuSans-41" x="210.791016"/>
      <use xlink:href="#DejaVuSans-5f" x="279.199219"/>
      <use xlink:href="#DejaVuSans-30" x="329.199219"/>
      <use xlink:href="#DejaVuSans-27" x="392.822266"/>
      <use xlink:href="#DejaVuSans-2c" x="420.3125"/>
      <use xlink:href="#DejaVuSans-20" x="452.099609"/>
      <use xlink:href="#DejaVuSans-27" x="483.886719"/>
      <use xlink:href="#DejaVuSans-52" x="511.376953"/>
      <use xlink:href="#DejaVuSans-4e" x="580.859375"/>
      <use xlink:href="#DejaVuSans-41" x="655.664062"/>
      <use xlink:href="#DejaVuSans-5f" x="724.072266"/>
      <use xlink:href="#DejaVuSans-32" x="774.072266"/>
      <use xlink:href="#DejaVuSans-27" x="837.695312"/>
      <use xlink:href="#DejaVuSans-29" x="865.185547"/>
     </g>
    </g>
    <g id="line2d_28">
     <path d="M 287.30125 99.439188 
L 297.30125 99.439188 
L 307.30125 99.439188 
" style="fill: none; stroke: #d62728; stroke-width: 1.5; stroke-linecap: square"/>
    </g>
    <g id="text_19">
     <!-- ('RNA_1', 'RNA_1') -->
     <g transform="translate(315.30125 102.939188) scale(0.1 -0.1)">
      <use xlink:href="#DejaVuSans-28"/>
      <use xlink:href="#DejaVuSans-27" x="39.013672"/>
      <use xlink:href="#DejaVuSans-52" x="66.503906"/>
      <use xlink:href="#DejaVuSans-4e" x="135.986328"/>
      <use xlink:href="#DejaVuSans-41" x="210.791016"/>
      <use xlink:href="#DejaVuSans-5f" x="279.199219"/>
      <use xlink:href="#DejaVuSans-31" x="329.199219"/>
      <use xlink:href="#DejaVuSans-27" x="392.822266"/>
      <use xlink:href="#DejaVuSans-2c" x="420.3125"/>
      <use xlink:href="#DejaVuSans-20" x="452.099609"/>
      <use xlink:href="#DejaVuSans-27" x="483.886719"/>
      <use xlink:href="#DejaVuSans-52" x="511.376953"/>
      <use xlink:href="#DejaVuSans-4e" x="580.859375"/>
      <use xlink:href="#DejaVuSans-41" x="655.664062"/>
      <use xlink:href="#DejaVuSans-5f" x="724.072266"/>
      <use xlink:href="#DejaVuSans-31" x="774.072266"/>
      <use xlink:href="#DejaVuSans-27" x="837.695312"/>
      <use xlink:href="#DejaVuSans-29" x="865.185547"/>
     </g>
    </g>
    <g id="line2d_29">
     <path d="M 287.30125 114.395438 
L 297.30125 114.395438 
L 307.30125 114.395438 
" style="fill: none; stroke: #9467bd; stroke-width: 1.5; stroke-linecap: square"/>
    </g>
    <g id="text_20">
     <!-- ('RNA_1', 'RNA_2') -->
     <g transform="translate(315.30125 117.895438) scale(0.1 -0.1)">
      <use xlink:href="#DejaVuSans-28"/>
      <use xlink:href="#DejaVuSans-27" x="39.013672"/>
      <use xlink:href="#DejaVuSans-52" x="66.503906"/>
      <use xlink:href="#DejaVuSans-4e" x="135.986328"/>
      <use xlink:href="#DejaVuSans-41" x="210.791016"/>
      <use xlink:href="#DejaVuSans-5f" x="279.199219"/>
      <use xlink:href="#DejaVuSans-31" x="329.199219"/>
      <use xlink:href="#DejaVuSans-27" x="392.822266"/>
      <use xlink:href="#DejaVuSans-2c" x="420.3125"/>
      <use xlink:href="#DejaVuSans-20" x="452.099609"/>
      <use xlink:href="#DejaVuSans-27" x="483.886719"/>
      <use xlink:href="#DejaVuSans-52" x="511.376953"/>
      <use xlink:href="#DejaVuSans-4e" x="580.859375"/>
      <use xlink:href="#DejaVuSans-41" x="655.664062"/>
      <use xlink:href="#DejaVuSans-5f" x="724.072266"/>
      <use xlink:href="#DejaVuSans-32" x="774.072266"/>
      <use xlink:href="#DejaVuSans-27" x="837.695312"/>
      <use xlink:href="#DejaVuSans-29" x="865.185547"/>
     </g>
    </g>
    <g id="line2d_30">
     <path d="M 287.30125 129.351688 
L 297.30125 129.351688 
L 307.30125 129.351688 
" style="fill: none; stroke: #8c564b; stroke-width: 1.5; stroke-linecap: square"/>
    </g>
    <g id="text_21">
     <!-- ('RNA_2', 'RNA_2') -->
     <g transform="translate(315.30125 132.851688) scale(0.1 -0.1)">
      <use xlink:href="#DejaVuSans-28"/>
      <use xlink:href="#DejaVuSans-27" x="39.013672"/>
      <use xlink:href="#DejaVuSans-52" x="66.503906"/>
      <use xlink:href="#DejaVuSans-4e" x="135.986328"/>
      <use xlink:href="#DejaVuSans-41" x="210.791016"/>
      <use xlink:href="#DejaVuSans-5f" x="279.199219"/>
      <use xlink:href="#DejaVuSans-32" x="329.199219"/>
      <use xlink:href="#DejaVuSans-27" x="392.822266"/>
      <use xlink:href="#DejaVuSans-2c" x="420.3125"/>
      <use xlink:href="#DejaVuSans-20" x="452.099609"/>
      <use xlink:href="#DejaVuSans-27" x="483.886719"/>
      <use xlink:href="#DejaVuSans-52" x="511.376953"/>
      <use xlink:href="#DejaVuSans-4e" x="580.859375"/>
      <use xlink:href="#DejaVuSans-41" x="655.664062"/>
      <use xlink:href="#DejaVuSans-5f" x="724.072266"/>
      <use xlink:href="#DejaVuSans-32" x="774.072266"/>
      <use xlink:href="#DejaVuSans-27" x="837.695312"/>
      <use xlink:href="#DejaVuSans-29" x="865.185547"/>
     </g>
    </g>
    <g id="line2d_31">
     <path d="M 287.30125 144.307938 
L 297.30125 144.307938 
L 307.30125 144.307938 
" style="fill: none; stroke: #e377c2; stroke-width: 1.5; stroke-linecap: square"/>
    </g>
    <g id="text_22">
     <!-- RNA_0 -->
     <g transform="translate(315.30125 147.807938) scale(0.1 -0.1)">
      <use xlink:href="#DejaVuSans-52"/>
      <use xlink:href="#DejaVuSans-4e" x="69.482422"/>
      <use xlink:href="#DejaVuSans-41" x="144.287109"/>
      <use xlink:href="#DejaVuSans-5f" x="212.695312"/>
      <use xlink:href="#DejaVuSans-30" x="262.695312"/>
     </g>
    </g>
    <g id="line2d_32">
     <path d="M 287.30125 159.264188 
L 297.30125 159.264188 
L 307.30125 159.264188 
" style="fill: none; stroke: #7f7f7f; stroke-width: 1.5; stroke-linecap: square"/>
    </g>
    <g id="text_23">
     <!-- RNA_1 -->
     <g transform="translate(315.30125 162.764188) scale(0.1 -0.1)">
      <use xlink:href="#DejaVuSans-52"/>
      <use xlink:href="#DejaVuSans-4e" x="69.482422"/>
      <use xlink:href="#DejaVuSans-41" x="144.287109"/>
      <use xlink:href="#DejaVuSans-5f" x="212.695312"/>
      <use xlink:href="#DejaVuSans-31" x="262.695312"/>
     </g>
    </g>
    <g id="line2d_33">
     <path d="M 287.30125 174.220438 
L 297.30125 174.220438 
L 307.30125 174.220438 
" style="fill: none; stroke: #bcbd22; stroke-width: 1.5; stroke-linecap: square"/>
    </g>
    <g id="text_24">
     <!-- RNA_2 -->
     <g transform="translate(315.30125 177.720438) scale(0.1 -0.1)">
      <use xlink:href="#DejaVuSans-52"/>
      <use xlink:href="#DejaVuSans-4e" x="69.482422"/>
      <use xlink:href="#DejaVuSans-41" x="144.287109"/>
      <use xlink:href="#DejaVuSans-5f" x="212.695312"/>
      <use xlink:href="#DejaVuSans-32" x="262.695312"/>
     </g>
    </g>
   </g>
  </g>
 </g>
 <defs>
  <clipPath id="p84e5182b89">
   <rect x="57.6" y="41.472" width="357.12" height="266.112"/>
  </clipPath>
 </defs>
</svg>
