<?xml version="1.0" encoding="utf-8" standalone="no"?>
<!DOCTYPE svg PUBLIC "-//W3C//DTD SVG 1.1//EN"
  "http://www.w3.org/Graphics/SVG/1.1/DTD/svg11.dtd">
<svg xmlns:xlink="http://www.w3.org/1999/xlink" width="460.8pt" height="345.6pt" viewBox="0 0 460.8 345.6" xmlns="http://www.w3.org/2000/svg" version="1.1">
 <metadata>
  <rdf:RDF xmlns:dc="http://purl.org/dc/elements/1.1/" xmlns:cc="http://creativecommons.org/ns#" xmlns:rdf="http://www.w3.org/1999/02/22-rdf-syntax-ns#">
   <cc:Work>
    <dc:type rdf:resource="http://purl.org/dc/dcmitype/StillImage"/>
    <dc:date>2023-06-14T17:05:35.694160</dc:date>
    <dc:format>image/svg+xml</dc:format>
    <dc:creator>
     <cc:Agent>
      <dc:title>Matplotlib v3.6.0, https://matplotlib.org/</dc:title>
     </cc:Agent>
    </dc:creator>
   </cc:Work>
  </rdf:RDF>
 </metadata>
 <defs>
  <style type="text/css">*{stroke-linejoin: round; stroke-linecap: butt}</style>
 </defs>
 <g id="figure_1">
  <g id="patch_1">
   <path d="M 0 345.6 
L 460.8 345.6 
L 460.8 0 
L 0 0 
z
" style="fill: #ffffff"/>
  </g>
  <g id="axes_1">
   <g id="patch_2">
    <path d="M 57.6 307.584 
L 414.72 307.584 
L 414.72 41.472 
L 57.6 41.472 
z
" style="fill: #ffffff"/>
   </g>
   <g id="matplotlib.axis_1">
    <g id="xtick_1">
     <g id="line2d_1">
      <defs>
       <path id="m1d0bf5d0ca" d="M 0 0 
L 0 3.5 
" style="stroke: #000000; stroke-width: 0.8"/>
      </defs>
      <g>
       <use xlink:href="#m1d0bf5d0ca" x="73.832727" y="307.584" style="stroke: #000000; stroke-width: 0.8"/>
      </g>
     </g>
     <g id="text_1">
      <!-- 0 -->
      <g transform="translate(70.651477 322.182437) scale(0.1 -0.1)">
       <defs>
        <path id="DejaVuSans-30" d="M 2034 4250 
Q 1547 4250 1301 3770 
Q 1056 3291 1056 2328 
Q 1056 1369 1301 889 
Q 1547 409 2034 409 
Q 2525 409 2770 889 
Q 3016 1369 3016 2328 
Q 3016 3291 2770 3770 
Q 2525 4250 2034 4250 
z
M 2034 4750 
Q 2819 4750 3233 4129 
Q 3647 3509 3647 2328 
Q 3647 1150 3233 529 
Q 2819 -91 2034 -91 
Q 1250 -91 836 529 
Q 422 1150 422 2328 
Q 422 3509 836 4129 
Q 1250 4750 2034 4750 
z
" transform="scale(0.015625)"/>
       </defs>
       <use xlink:href="#DejaVuSans-30"/>
      </g>
     </g>
    </g>
    <g id="xtick_2">
     <g id="line2d_2">
      <g>
       <use xlink:href="#m1d0bf5d0ca" x="138.763636" y="307.584" style="stroke: #000000; stroke-width: 0.8"/>
      </g>
     </g>
     <g id="text_2">
      <!-- 100 -->
      <g transform="translate(129.219886 322.182437) scale(0.1 -0.1)">
       <defs>
        <path id="DejaVuSans-31" d="M 794 531 
L 1825 531 
L 1825 4091 
L 703 3866 
L 703 4441 
L 1819 4666 
L 2450 4666 
L 2450 531 
L 3481 531 
L 3481 0 
L 794 0 
L 794 531 
z
" transform="scale(0.015625)"/>
       </defs>
       <use xlink:href="#DejaVuSans-31"/>
       <use xlink:href="#DejaVuSans-30" x="63.623047"/>
       <use xlink:href="#DejaVuSans-30" x="127.246094"/>
      </g>
     </g>
    </g>
    <g id="xtick_3">
     <g id="line2d_3">
      <g>
       <use xlink:href="#m1d0bf5d0ca" x="203.694545" y="307.584" style="stroke: #000000; stroke-width: 0.8"/>
      </g>
     </g>
     <g id="text_3">
      <!-- 200 -->
      <g transform="translate(194.150795 322.182437) scale(0.1 -0.1)">
       <defs>
        <path id="DejaVuSans-32" d="M 1228 531 
L 3431 531 
L 3431 0 
L 469 0 
L 469 531 
Q 828 903 1448 1529 
Q 2069 2156 2228 2338 
Q 2531 2678 2651 2914 
Q 2772 3150 2772 3378 
Q 2772 3750 2511 3984 
Q 2250 4219 1831 4219 
Q 1534 4219 1204 4116 
Q 875 4013 500 3803 
L 500 4441 
Q 881 4594 1212 4672 
Q 1544 4750 1819 4750 
Q 2544 4750 2975 4387 
Q 3406 4025 3406 3419 
Q 3406 3131 3298 2873 
Q 3191 2616 2906 2266 
Q 2828 2175 2409 1742 
Q 1991 1309 1228 531 
z
" transform="scale(0.015625)"/>
       </defs>
       <use xlink:href="#DejaVuSans-32"/>
       <use xlink:href="#DejaVuSans-30" x="63.623047"/>
       <use xlink:href="#DejaVuSans-30" x="127.246094"/>
      </g>
     </g>
    </g>
    <g id="xtick_4">
     <g id="line2d_4">
      <g>
       <use xlink:href="#m1d0bf5d0ca" x="268.625455" y="307.584" style="stroke: #000000; stroke-width: 0.8"/>
      </g>
     </g>
     <g id="text_4">
      <!-- 300 -->
      <g transform="translate(259.081705 322.182437) scale(0.1 -0.1)">
       <defs>
        <path id="DejaVuSans-33" d="M 2597 2516 
Q 3050 2419 3304 2112 
Q 3559 1806 3559 1356 
Q 3559 666 3084 287 
Q 2609 -91 1734 -91 
Q 1441 -91 1130 -33 
Q 819 25 488 141 
L 488 750 
Q 750 597 1062 519 
Q 1375 441 1716 441 
Q 2309 441 2620 675 
Q 2931 909 2931 1356 
Q 2931 1769 2642 2001 
Q 2353 2234 1838 2234 
L 1294 2234 
L 1294 2753 
L 1863 2753 
Q 2328 2753 2575 2939 
Q 2822 3125 2822 3475 
Q 2822 3834 2567 4026 
Q 2313 4219 1838 4219 
Q 1578 4219 1281 4162 
Q 984 4106 628 3988 
L 628 4550 
Q 988 4650 1302 4700 
Q 1616 4750 1894 4750 
Q 2613 4750 3031 4423 
Q 3450 4097 3450 3541 
Q 3450 3153 3228 2886 
Q 3006 2619 2597 2516 
z
" transform="scale(0.015625)"/>
       </defs>
       <use xlink:href="#DejaVuSans-33"/>
       <use xlink:href="#DejaVuSans-30" x="63.623047"/>
       <use xlink:href="#DejaVuSans-30" x="127.246094"/>
      </g>
     </g>
    </g>
    <g id="xtick_5">
     <g id="line2d_5">
      <g>
       <use xlink:href="#m1d0bf5d0ca" x="333.556364" y="307.584" style="stroke: #000000; stroke-width: 0.8"/>
      </g>
     </g>
     <g id="text_5">
      <!-- 400 -->
      <g transform="translate(324.012614 322.182437) scale(0.1 -0.1)">
       <defs>
        <path id="DejaVuSans-34" d="M 2419 4116 
L 825 1625 
L 2419 1625 
L 2419 4116 
z
M 2253 4666 
L 3047 4666 
L 3047 1625 
L 3713 1625 
L 3713 1100 
L 3047 1100 
L 3047 0 
L 2419 0 
L 2419 1100 
L 313 1100 
L 313 1709 
L 2253 4666 
z
" transform="scale(0.015625)"/>
       </defs>
       <use xlink:href="#DejaVuSans-34"/>
       <use xlink:href="#DejaVuSans-30" x="63.623047"/>
       <use xlink:href="#DejaVuSans-30" x="127.246094"/>
      </g>
     </g>
    </g>
    <g id="xtick_6">
     <g id="line2d_6">
      <g>
       <use xlink:href="#m1d0bf5d0ca" x="398.487273" y="307.584" style="stroke: #000000; stroke-width: 0.8"/>
      </g>
     </g>
     <g id="text_6">
      <!-- 500 -->
      <g transform="translate(388.943523 322.182437) scale(0.1 -0.1)">
       <defs>
        <path id="DejaVuSans-35" d="M 691 4666 
L 3169 4666 
L 3169 4134 
L 1269 4134 
L 1269 2991 
Q 1406 3038 1543 3061 
Q 1681 3084 1819 3084 
Q 2600 3084 3056 2656 
Q 3513 2228 3513 1497 
Q 3513 744 3044 326 
Q 2575 -91 1722 -91 
Q 1428 -91 1123 -41 
Q 819 9 494 109 
L 494 744 
Q 775 591 1075 516 
Q 1375 441 1709 441 
Q 2250 441 2565 725 
Q 2881 1009 2881 1497 
Q 2881 1984 2565 2268 
Q 2250 2553 1709 2553 
Q 1456 2553 1204 2497 
Q 953 2441 691 2322 
L 691 4666 
z
" transform="scale(0.015625)"/>
       </defs>
       <use xlink:href="#DejaVuSans-35"/>
       <use xlink:href="#DejaVuSans-30" x="63.623047"/>
       <use xlink:href="#DejaVuSans-30" x="127.246094"/>
      </g>
     </g>
    </g>
   </g>
   <g id="matplotlib.axis_2">
    <g id="ytick_1">
     <g id="line2d_7">
      <defs>
       <path id="me8e28a2989" d="M 0 0 
L -3.5 0 
" style="stroke: #000000; stroke-width: 0.8"/>
      </defs>
      <g>
       <use xlink:href="#me8e28a2989" x="57.6" y="297.343086" style="stroke: #000000; stroke-width: 0.8"/>
      </g>
     </g>
     <g id="text_7">
      <!-- −150 -->
      <g transform="translate(23.132812 301.142305) scale(0.1 -0.1)">
       <defs>
        <path id="DejaVuSans-2212" d="M 678 2272 
L 4684 2272 
L 4684 1741 
L 678 1741 
L 678 2272 
z
" transform="scale(0.015625)"/>
       </defs>
       <use xlink:href="#DejaVuSans-2212"/>
       <use xlink:href="#DejaVuSans-31" x="83.789062"/>
       <use xlink:href="#DejaVuSans-35" x="147.412109"/>
       <use xlink:href="#DejaVuSans-30" x="211.035156"/>
      </g>
     </g>
    </g>
    <g id="ytick_2">
     <g id="line2d_8">
      <g>
       <use xlink:href="#me8e28a2989" x="57.6" y="264.777906" style="stroke: #000000; stroke-width: 0.8"/>
      </g>
     </g>
     <g id="text_8">
      <!-- −125 -->
      <g transform="translate(23.132812 268.577125) scale(0.1 -0.1)">
       <use xlink:href="#DejaVuSans-2212"/>
       <use xlink:href="#DejaVuSans-31" x="83.789062"/>
       <use xlink:href="#DejaVuSans-32" x="147.412109"/>
       <use xlink:href="#DejaVuSans-35" x="211.035156"/>
      </g>
     </g>
    </g>
    <g id="ytick_3">
     <g id="line2d_9">
      <g>
       <use xlink:href="#me8e28a2989" x="57.6" y="232.212726" style="stroke: #000000; stroke-width: 0.8"/>
      </g>
     </g>
     <g id="text_9">
      <!-- −100 -->
      <g transform="translate(23.132812 236.011944) scale(0.1 -0.1)">
       <use xlink:href="#DejaVuSans-2212"/>
       <use xlink:href="#DejaVuSans-31" x="83.789062"/>
       <use xlink:href="#DejaVuSans-30" x="147.412109"/>
       <use xlink:href="#DejaVuSans-30" x="211.035156"/>
      </g>
     </g>
    </g>
    <g id="ytick_4">
     <g id="line2d_10">
      <g>
       <use xlink:href="#me8e28a2989" x="57.6" y="199.647545" style="stroke: #000000; stroke-width: 0.8"/>
      </g>
     </g>
     <g id="text_10">
      <!-- −75 -->
      <g transform="translate(29.495313 203.446764) scale(0.1 -0.1)">
       <defs>
        <path id="DejaVuSans-37" d="M 525 4666 
L 3525 4666 
L 3525 4397 
L 1831 0 
L 1172 0 
L 2766 4134 
L 525 4134 
L 525 4666 
z
" transform="scale(0.015625)"/>
       </defs>
       <use xlink:href="#DejaVuSans-2212"/>
       <use xlink:href="#DejaVuSans-37" x="83.789062"/>
       <use xlink:href="#DejaVuSans-35" x="147.412109"/>
      </g>
     </g>
    </g>
    <g id="ytick_5">
     <g id="line2d_11">
      <g>
       <use xlink:href="#me8e28a2989" x="57.6" y="167.082365" style="stroke: #000000; stroke-width: 0.8"/>
      </g>
     </g>
     <g id="text_11">
      <!-- −50 -->
      <g transform="translate(29.495313 170.881584) scale(0.1 -0.1)">
       <use xlink:href="#DejaVuSans-2212"/>
       <use xlink:href="#DejaVuSans-35" x="83.789062"/>
       <use xlink:href="#DejaVuSans-30" x="147.412109"/>
      </g>
     </g>
    </g>
    <g id="ytick_6">
     <g id="line2d_12">
      <g>
       <use xlink:href="#me8e28a2989" x="57.6" y="134.517184" style="stroke: #000000; stroke-width: 0.8"/>
      </g>
     </g>
     <g id="text_12">
      <!-- −25 -->
      <g transform="translate(29.495313 138.316403) scale(0.1 -0.1)">
       <use xlink:href="#DejaVuSans-2212"/>
       <use xlink:href="#DejaVuSans-32" x="83.789062"/>
       <use xlink:href="#DejaVuSans-35" x="147.412109"/>
      </g>
     </g>
    </g>
    <g id="ytick_7">
     <g id="line2d_13">
      <g>
       <use xlink:href="#me8e28a2989" x="57.6" y="101.952004" style="stroke: #000000; stroke-width: 0.8"/>
      </g>
     </g>
     <g id="text_13">
      <!-- 0 -->
      <g transform="translate(44.2375 105.751223) scale(0.1 -0.1)">
       <use xlink:href="#DejaVuSans-30"/>
      </g>
     </g>
    </g>
    <g id="ytick_8">
     <g id="line2d_14">
      <g>
       <use xlink:href="#me8e28a2989" x="57.6" y="69.386824" style="stroke: #000000; stroke-width: 0.8"/>
      </g>
     </g>
     <g id="text_14">
      <!-- 25 -->
      <g transform="translate(37.875 73.186042) scale(0.1 -0.1)">
       <use xlink:href="#DejaVuSans-32"/>
       <use xlink:href="#DejaVuSans-35" x="63.623047"/>
      </g>
     </g>
    </g>
   </g>
   <g id="line2d_15">
    <path d="M 73.832727 53.56801 
L 75.464157 74.631363 
L 77.095587 97.749438 
L 78.727017 100.409123 
L 80.358447 101.257159 
L 81.989876 101.61219 
L 85.252737 101.862509 
L 91.778456 101.945142 
L 150.509933 101.952004 
L 398.487273 101.952004 
L 398.487273 101.952004 
" clip-path="url(#p00c143f0e1)" style="fill: none; stroke: #1f77b4; stroke-width: 1.5; stroke-linecap: square"/>
   </g>
   <g id="line2d_16">
    <path d="M 73.832727 53.568005 
L 75.464157 74.63136 
L 77.095587 97.749436 
L 78.727017 100.409121 
L 80.358447 101.257159 
L 81.989876 101.612193 
L 85.252737 101.862509 
L 91.778456 101.945137 
L 150.509933 101.952004 
L 398.487273 101.952004 
L 398.487273 101.952004 
" clip-path="url(#p00c143f0e1)" style="fill: none; stroke: #ff7f0e; stroke-width: 1.5; stroke-linecap: square"/>
   </g>
   <g id="line2d_17">
    <path d="M 73.832727 53.56801 
L 75.464157 74.631363 
L 77.095587 97.749436 
L 78.727017 100.409121 
L 80.358447 101.257159 
L 81.989876 101.61219 
L 85.252737 101.862509 
L 91.778456 101.945137 
L 150.509933 101.952004 
L 398.487273 101.952004 
L 398.487273 101.952004 
" clip-path="url(#p00c143f0e1)" style="fill: none; stroke: #2ca02c; stroke-width: 1.5; stroke-linecap: square"/>
   </g>
   <g id="line2d_18">
    <path d="M 73.832727 53.568 
L 75.464157 74.631358 
L 77.095587 97.749436 
L 78.727017 100.409121 
L 80.358447 101.257159 
L 81.989876 101.612193 
L 85.252737 101.862509 
L 91.778456 101.945137 
L 150.509933 101.952004 
L 398.487273 101.952004 
L 398.487273 101.952004 
" clip-path="url(#p00c143f0e1)" style="fill: none; stroke: #d62728; stroke-width: 1.5; stroke-linecap: square"/>
   </g>
   <g id="line2d_19">
    <path d="M 73.832727 53.568 
L 75.464157 74.631358 
L 77.095587 97.749436 
L 78.727017 100.409121 
L 80.358447 101.257159 
L 81.989876 101.612193 
L 85.252737 101.862509 
L 91.778456 101.945137 
L 150.509933 101.952004 
L 398.487273 101.952004 
L 398.487273 101.952004 
" clip-path="url(#p00c143f0e1)" style="fill: none; stroke: #9467bd; stroke-width: 1.5; stroke-linecap: square"/>
   </g>
   <g id="line2d_20">
    <path d="M 73.832727 53.568 
L 75.464157 74.631358 
L 77.095587 97.749436 
L 78.727017 100.409121 
L 80.358447 101.257159 
L 81.989876 101.61219 
L 85.252737 101.862509 
L 91.778456 101.945139 
L 150.509933 101.952004 
L 398.487273 101.952004 
L 398.487273 101.952004 
" clip-path="url(#p00c143f0e1)" style="fill: none; stroke: #8c564b; stroke-width: 1.5; stroke-linecap: square"/>
   </g>
   <g id="line2d_21">
    <path d="M 73.832727 295.488 
L 75.464157 211.23458 
L 77.095587 118.762271 
L 78.727017 108.123526 
L 80.358447 104.731356 
L 81.989876 103.311245 
L 83.621306 102.6429 
L 85.252737 102.310001 
L 88.515596 102.050539 
L 95.041315 101.959676 
L 147.247069 101.952004 
L 398.487273 101.952004 
L 398.487273 101.952004 
" clip-path="url(#p00c143f0e1)" style="fill: none; stroke: #e377c2; stroke-width: 1.5; stroke-linecap: square"/>
   </g>
   <g id="line2d_22">
    <path d="M 73.832727 295.488 
L 75.464157 211.23457 
L 77.095587 118.762278 
L 78.727017 108.12353 
L 80.358447 104.731356 
L 81.989876 103.311245 
L 83.621306 102.642899 
L 85.252737 102.310001 
L 88.515596 102.050539 
L 95.041315 101.959676 
L 147.247069 101.952004 
L 398.487273 101.952004 
L 398.487273 101.952004 
" clip-path="url(#p00c143f0e1)" style="fill: none; stroke: #7f7f7f; stroke-width: 1.5; stroke-linecap: square"/>
   </g>
   <g id="line2d_23">
    <path d="M 73.832727 295.488 
L 75.464157 211.23457 
L 77.095587 118.762278 
L 78.727017 108.123527 
L 80.358447 104.731358 
L 81.989876 103.311246 
L 83.621306 102.642899 
L 85.252737 102.309999 
L 88.515596 102.050539 
L 95.041315 101.959676 
L 147.247069 101.952004 
L 398.487273 101.952004 
L 398.487273 101.952004 
" clip-path="url(#p00c143f0e1)" style="fill: none; stroke: #bcbd22; stroke-width: 1.5; stroke-linecap: square"/>
   </g>
   <g id="patch_3">
    <path d="M 57.6 307.584 
L 57.6 41.472 
" style="fill: none; stroke: #000000; stroke-width: 0.8; stroke-linejoin: miter; stroke-linecap: square"/>
   </g>
   <g id="patch_4">
    <path d="M 414.72 307.584 
L 414.72 41.472 
" style="fill: none; stroke: #000000; stroke-width: 0.8; stroke-linejoin: miter; stroke-linecap: square"/>
   </g>
   <g id="patch_5">
    <path d="M 57.6 307.584 
L 414.72 307.584 
" style="fill: none; stroke: #000000; stroke-width: 0.8; stroke-linejoin: miter; stroke-linecap: square"/>
   </g>
   <g id="patch_6">
    <path d="M 57.6 41.472 
L 414.72 41.472 
" style="fill: none; stroke: #000000; stroke-width: 0.8; stroke-linejoin: miter; stroke-linecap: square"/>
   </g>
   <g id="legend_1">
    <g id="patch_7">
     <path d="M 285.30125 302.584 
L 407.72 302.584 
Q 409.72 302.584 409.72 300.584 
L 409.72 166.97775 
Q 409.72 164.97775 407.72 164.97775 
L 285.30125 164.97775 
Q 283.30125 164.97775 283.30125 166.97775 
L 283.30125 300.584 
Q 283.30125 302.584 285.30125 302.584 
z
" style="fill: #ffffff; opacity: 0.8; stroke: #cccccc; stroke-linejoin: miter"/>
    </g>
    <g id="line2d_24">
     <path d="M 287.30125 173.076188 
L 297.30125 173.076188 
L 307.30125 173.076188 
" style="fill: none; stroke: #1f77b4; stroke-width: 1.5; stroke-linecap: square"/>
    </g>
    <g id="text_15">
     <!-- ('RNA_0', 'RNA_0') -->
     <g transform="translate(315.30125 176.576188) scale(0.1 -0.1)">
      <defs>
       <path id="DejaVuSans-28" d="M 1984 4856 
Q 1566 4138 1362 3434 
Q 1159 2731 1159 2009 
Q 1159 1288 1364 580 
Q 1569 -128 1984 -844 
L 1484 -844 
Q 1016 -109 783 600 
Q 550 1309 550 2009 
Q 550 2706 781 3412 
Q 1013 4119 1484 4856 
L 1984 4856 
z
" transform="scale(0.015625)"/>
       <path id="DejaVuSans-27" d="M 1147 4666 
L 1147 2931 
L 616 2931 
L 616 4666 
L 1147 4666 
z
" transform="scale(0.015625)"/>
       <path id="DejaVuSans-52" d="M 2841 2188 
Q 3044 2119 3236 1894 
Q 3428 1669 3622 1275 
L 4263 0 
L 3584 0 
L 2988 1197 
Q 2756 1666 2539 1819 
Q 2322 1972 1947 1972 
L 1259 1972 
L 1259 0 
L 628 0 
L 628 4666 
L 2053 4666 
Q 2853 4666 3247 4331 
Q 3641 3997 3641 3322 
Q 3641 2881 3436 2590 
Q 3231 2300 2841 2188 
z
M 1259 4147 
L 1259 2491 
L 2053 2491 
Q 2509 2491 2742 2702 
Q 2975 2913 2975 3322 
Q 2975 3731 2742 3939 
Q 2509 4147 2053 4147 
L 1259 4147 
z
" transform="scale(0.015625)"/>
       <path id="DejaVuSans-4e" d="M 628 4666 
L 1478 4666 
L 3547 763 
L 3547 4666 
L 4159 4666 
L 4159 0 
L 3309 0 
L 1241 3903 
L 1241 0 
L 628 0 
L 628 4666 
z
" transform="scale(0.015625)"/>
       <path id="DejaVuSans-41" d="M 2188 4044 
L 1331 1722 
L 3047 1722 
L 2188 4044 
z
M 1831 4666 
L 2547 4666 
L 4325 0 
L 3669 0 
L 3244 1197 
L 1141 1197 
L 716 0 
L 50 0 
L 1831 4666 
z
" transform="scale(0.015625)"/>
       <path id="DejaVuSans-5f" d="M 3263 -1063 
L 3263 -1509 
L -63 -1509 
L -63 -1063 
L 3263 -1063 
z
" transform="scale(0.015625)"/>
       <path id="DejaVuSans-2c" d="M 750 794 
L 1409 794 
L 1409 256 
L 897 -744 
L 494 -744 
L 750 256 
L 750 794 
z
" transform="scale(0.015625)"/>
       <path id="DejaVuSans-20" transform="scale(0.015625)"/>
       <path id="DejaVuSans-29" d="M 513 4856 
L 1013 4856 
Q 1481 4119 1714 3412 
Q 1947 2706 1947 2009 
Q 1947 1309 1714 600 
Q 1481 -109 1013 -844 
L 513 -844 
Q 928 -128 1133 580 
Q 1338 1288 1338 2009 
Q 1338 2731 1133 3434 
Q 928 4138 513 4856 
z
" transform="scale(0.015625)"/>
      </defs>
      <use xlink:href="#DejaVuSans-28"/>
      <use xlink:href="#DejaVuSans-27" x="39.013672"/>
      <use xlink:href="#DejaVuSans-52" x="66.503906"/>
      <use xlink:href="#DejaVuSans-4e" x="135.986328"/>
      <use xlink:href="#DejaVuSans-41" x="210.791016"/>
      <use xlink:href="#DejaVuSans-5f" x="279.199219"/>
      <use xlink:href="#DejaVuSans-30" x="329.199219"/>
      <use xlink:href="#DejaVuSans-27" x="392.822266"/>
      <use xlink:href="#DejaVuSans-2c" x="420.3125"/>
      <use xlink:href="#DejaVuSans-20" x="452.099609"/>
      <use xlink:href="#DejaVuSans-27" x="483.886719"/>
      <use xlink:href="#DejaVuSans-52" x="511.376953"/>
      <use xlink:href="#DejaVuSans-4e" x="580.859375"/>
      <use xlink:href="#DejaVuSans-41" x="655.664062"/>
      <use xlink:href="#DejaVuSans-5f" x="724.072266"/>
      <use xlink:href="#DejaVuSans-30" x="774.072266"/>
      <use xlink:href="#DejaVuSans-27" x="837.695312"/>
      <use xlink:href="#DejaVuSans-29" x="865.185547"/>
     </g>
    </g>
    <g id="line2d_25">
     <path d="M 287.30125 188.032438 
L 297.30125 188.032438 
L 307.30125 188.032438 
" style="fill: none; stroke: #ff7f0e; stroke-width: 1.5; stroke-linecap: square"/>
    </g>
    <g id="text_16">
     <!-- ('RNA_0', 'RNA_1') -->
     <g transform="translate(315.30125 191.532438) scale(0.1 -0.1)">
      <use xlink:href="#DejaVuSans-28"/>
      <use xlink:href="#DejaVuSans-27" x="39.013672"/>
      <use xlink:href="#DejaVuSans-52" x="66.503906"/>
      <use xlink:href="#DejaVuSans-4e" x="135.986328"/>
      <use xlink:href="#DejaVuSans-41" x="210.791016"/>
      <use xlink:href="#DejaVuSans-5f" x="279.199219"/>
      <use xlink:href="#DejaVuSans-30" x="329.199219"/>
      <use xlink:href="#DejaVuSans-27" x="392.822266"/>
      <use xlink:href="#DejaVuSans-2c" x="420.3125"/>
      <use xlink:href="#DejaVuSans-20" x="452.099609"/>
      <use xlink:href="#DejaVuSans-27" x="483.886719"/>
      <use xlink:href="#DejaVuSans-52" x="511.376953"/>
      <use xlink:href="#DejaVuSans-4e" x="580.859375"/>
      <use xlink:href="#DejaVuSans-41" x="655.664062"/>
      <use xlink:href="#DejaVuSans-5f" x="724.072266"/>
      <use xlink:href="#DejaVuSans-31" x="774.072266"/>
      <use xlink:href="#DejaVuSans-27" x="837.695312"/>
      <use xlink:href="#DejaVuSans-29" x="865.185547"/>
     </g>
    </g>
    <g id="line2d_26">
     <path d="M 287.30125 202.988688 
L 297.30125 202.988688 
L 307.30125 202.988688 
" style="fill: none; stroke: #2ca02c; stroke-width: 1.5; stroke-linecap: square"/>
    </g>
    <g id="text_17">
     <!-- ('RNA_0', 'RNA_2') -->
     <g transform="translate(315.30125 206.488688) scale(0.1 -0.1)">
      <use xlink:href="#DejaVuSans-28"/>
      <use xlink:href="#DejaVuSans-27" x="39.013672"/>
      <use xlink:href="#DejaVuSans-52" x="66.503906"/>
      <use xlink:href="#DejaVuSans-4e" x="135.986328"/>
      <use xlink:href="#DejaVuSans-41" x="210.791016"/>
      <use xlink:href="#DejaVuSans-5f" x="279.199219"/>
      <use xlink:href="#DejaVuSans-30" x="329.199219"/>
      <use xlink:href="#DejaVuSans-27" x="392.822266"/>
      <use xlink:href="#DejaVuSans-2c" x="420.3125"/>
      <use xlink:href="#DejaVuSans-20" x="452.099609"/>
      <use xlink:href="#DejaVuSans-27" x="483.886719"/>
      <use xlink:href="#DejaVuSans-52" x="511.376953"/>
      <use xlink:href="#DejaVuSans-4e" x="580.859375"/>
      <use xlink:href="#DejaVuSans-41" x="655.664062"/>
      <use xlink:href="#DejaVuSans-5f" x="724.072266"/>
      <use xlink:href="#DejaVuSans-32" x="774.072266"/>
      <use xlink:href="#DejaVuSans-27" x="837.695312"/>
      <use xlink:href="#DejaVuSans-29" x="865.185547"/>
     </g>
    </g>
    <g id="line2d_27">
     <path d="M 287.30125 217.944938 
L 297.30125 217.944938 
L 307.30125 217.944938 
" style="fill: none; stroke: #d62728; stroke-width: 1.5; stroke-linecap: square"/>
    </g>
    <g id="text_18">
     <!-- ('RNA_1', 'RNA_1') -->
     <g transform="translate(315.30125 221.444938) scale(0.1 -0.1)">
      <use xlink:href="#DejaVuSans-28"/>
      <use xlink:href="#DejaVuSans-27" x="39.013672"/>
      <use xlink:href="#DejaVuSans-52" x="66.503906"/>
      <use xlink:href="#DejaVuSans-4e" x="135.986328"/>
      <use xlink:href="#DejaVuSans-41" x="210.791016"/>
      <use xlink:href="#DejaVuSans-5f" x="279.199219"/>
      <use xlink:href="#DejaVuSans-31" x="329.199219"/>
      <use xlink:href="#DejaVuSans-27" x="392.822266"/>
      <use xlink:href="#DejaVuSans-2c" x="420.3125"/>
      <use xlink:href="#DejaVuSans-20" x="452.099609"/>
      <use xlink:href="#DejaVuSans-27" x="483.886719"/>
      <use xlink:href="#DejaVuSans-52" x="511.376953"/>
      <use xlink:href="#DejaVuSans-4e" x="580.859375"/>
      <use xlink:href="#DejaVuSans-41" x="655.664062"/>
      <use xlink:href="#DejaVuSans-5f" x="724.072266"/>
      <use xlink:href="#DejaVuSans-31" x="774.072266"/>
      <use xlink:href="#DejaVuSans-27" x="837.695312"/>
      <use xlink:href="#DejaVuSans-29" x="865.185547"/>
     </g>
    </g>
    <g id="line2d_28">
     <path d="M 287.30125 232.901187 
L 297.30125 232.901187 
L 307.30125 232.901187 
" style="fill: none; stroke: #9467bd; stroke-width: 1.5; stroke-linecap: square"/>
    </g>
    <g id="text_19">
     <!-- ('RNA_1', 'RNA_2') -->
     <g transform="translate(315.30125 236.401187) scale(0.1 -0.1)">
      <use xlink:href="#DejaVuSans-28"/>
      <use xlink:href="#DejaVuSans-27" x="39.013672"/>
      <use xlink:href="#DejaVuSans-52" x="66.503906"/>
      <use xlink:href="#DejaVuSans-4e" x="135.986328"/>
      <use xlink:href="#DejaVuSans-41" x="210.791016"/>
      <use xlink:href="#DejaVuSans-5f" x="279.199219"/>
      <use xlink:href="#DejaVuSans-31" x="329.199219"/>
      <use xlink:href="#DejaVuSans-27" x="392.822266"/>
      <use xlink:href="#DejaVuSans-2c" x="420.3125"/>
      <use xlink:href="#DejaVuSans-20" x="452.099609"/>
      <use xlink:href="#DejaVuSans-27" x="483.886719"/>
      <use xlink:href="#DejaVuSans-52" x="511.376953"/>
      <use xlink:href="#DejaVuSans-4e" x="580.859375"/>
      <use xlink:href="#DejaVuSans-41" x="655.664062"/>
      <use xlink:href="#DejaVuSans-5f" x="724.072266"/>
      <use xlink:href="#DejaVuSans-32" x="774.072266"/>
      <use xlink:href="#DejaVuSans-27" x="837.695312"/>
      <use xlink:href="#DejaVuSans-29" x="865.185547"/>
     </g>
    </g>
    <g id="line2d_29">
     <path d="M 287.30125 247.857438 
L 297.30125 247.857438 
L 307.30125 247.857438 
" style="fill: none; stroke: #8c564b; stroke-width: 1.5; stroke-linecap: square"/>
    </g>
    <g id="text_20">
     <!-- ('RNA_2', 'RNA_2') -->
     <g transform="translate(315.30125 251.357438) scale(0.1 -0.1)">
      <use xlink:href="#DejaVuSans-28"/>
      <use xlink:href="#DejaVuSans-27" x="39.013672"/>
      <use xlink:href="#DejaVuSans-52" x="66.503906"/>
      <use xlink:href="#DejaVuSans-4e" x="135.986328"/>
      <use xlink:href="#DejaVuSans-41" x="210.791016"/>
      <use xlink:href="#DejaVuSans-5f" x="279.199219"/>
      <use xlink:href="#DejaVuSans-32" x="329.199219"/>
      <use xlink:href="#DejaVuSans-27" x="392.822266"/>
      <use xlink:href="#DejaVuSans-2c" x="420.3125"/>
      <use xlink:href="#DejaVuSans-20" x="452.099609"/>
      <use xlink:href="#DejaVuSans-27" x="483.886719"/>
      <use xlink:href="#DejaVuSans-52" x="511.376953"/>
      <use xlink:href="#DejaVuSans-4e" x="580.859375"/>
      <use xlink:href="#DejaVuSans-41" x="655.664062"/>
      <use xlink:href="#DejaVuSans-5f" x="724.072266"/>
      <use xlink:href="#DejaVuSans-32" x="774.072266"/>
      <use xlink:href="#DejaVuSans-27" x="837.695312"/>
      <use xlink:href="#DejaVuSans-29" x="865.185547"/>
     </g>
    </g>
    <g id="line2d_30">
     <path d="M 287.30125 262.813688 
L 297.30125 262.813688 
L 307.30125 262.813688 
" style="fill: none; stroke: #e377c2; stroke-width: 1.5; stroke-linecap: square"/>
    </g>
    <g id="text_21">
     <!-- RNA_0 -->
     <g transform="translate(315.30125 266.313688) scale(0.1 -0.1)">
      <use xlink:href="#DejaVuSans-52"/>
      <use xlink:href="#DejaVuSans-4e" x="69.482422"/>
      <use xlink:href="#DejaVuSans-41" x="144.287109"/>
      <use xlink:href="#DejaVuSans-5f" x="212.695312"/>
      <use xlink:href="#DejaVuSans-30" x="262.695312"/>
     </g>
    </g>
    <g id="line2d_31">
     <path d="M 287.30125 277.769937 
L 297.30125 277.769937 
L 307.30125 277.769937 
" style="fill: none; stroke: #7f7f7f; stroke-width: 1.5; stroke-linecap: square"/>
    </g>
    <g id="text_22">
     <!-- RNA_1 -->
     <g transform="translate(315.30125 281.269937) scale(0.1 -0.1)">
      <use xlink:href="#DejaVuSans-52"/>
      <use xlink:href="#DejaVuSans-4e" x="69.482422"/>
      <use xlink:href="#DejaVuSans-41" x="144.287109"/>
      <use xlink:href="#DejaVuSans-5f" x="212.695312"/>
      <use xlink:href="#DejaVuSans-31" x="262.695312"/>
     </g>
    </g>
    <g id="line2d_32">
     <path d="M 287.30125 292.726187 
L 297.30125 292.726187 
L 307.30125 292.726187 
" style="fill: none; stroke: #bcbd22; stroke-width: 1.5; stroke-linecap: square"/>
    </g>
    <g id="text_23">
     <!-- RNA_2 -->
     <g transform="translate(315.30125 296.226187) scale(0.1 -0.1)">
      <use xlink:href="#DejaVuSans-52"/>
      <use xlink:href="#DejaVuSans-4e" x="69.482422"/>
      <use xlink:href="#DejaVuSans-41" x="144.287109"/>
      <use xlink:href="#DejaVuSans-5f" x="212.695312"/>
      <use xlink:href="#DejaVuSans-32" x="262.695312"/>
     </g>
    </g>
   </g>
  </g>
 </g>
 <defs>
  <clipPath id="p00c143f0e1">
   <rect x="57.6" y="41.472" width="357.12" height="266.112"/>
  </clipPath>
 </defs>
</svg>
